<?xml version="1.0" encoding="UTF-8" standalone="no"?>
<!DOCTYPE svg PUBLIC "-//W3C//DTD SVG 1.1//EN"
 "http://www.w3.org/Graphics/SVG/1.1/DTD/svg11.dtd">
<!-- Generated by graphviz version 2.38.0 (20140413.2041)
 -->
<!-- Title: G Pages: 1 -->
<svg width="2486pt" height="556pt"
 viewBox="0.00 0.00 2486.13 555.98" xmlns="http://www.w3.org/2000/svg" xmlns:xlink="http://www.w3.org/1999/xlink">
<g id="graph0" class="graph" transform="scale(1 1) rotate(0) translate(7.992 547.992)">
<title>G</title>
<polygon fill="#000000" stroke="none" points="-7.992,7.992 -7.992,-547.992 2478.14,-547.992 2478.14,7.992 -7.992,7.992"/>
<!-- app -->
<g id="node1" class="node"><title>app</title>
<ellipse fill="none" stroke="#c6c5fe" cx="2006.43" cy="-522" rx="27" ry="18"/>
<text text-anchor="middle" x="2006.43" y="-518.3" font-family="Arial" font-size="14.00" fill="#c6c5fe">app</text>
</g>
<!-- config -->
<g id="node2" class="node"><title>config</title>
<ellipse fill="none" stroke="#cfffac" cx="1616.43" cy="-18" rx="36.2938" ry="18"/>
<text text-anchor="middle" x="1616.43" y="-14.3" font-family="Arial" font-size="14.00" fill="#cfffac">config</text>
</g>
<!-- app&#45;&gt;config -->
<g id="edge1" class="edge"><title>app&#45;&gt;config</title>
<path fill="none" stroke="#757575" d="M2033.49,-519.566C2124.81,-514.482 2417.64,-496.105 2448.43,-468 2478.3,-440.73 2467.43,-419.447 2467.43,-379 2467.43,-379 2467.43,-379 2467.43,-161 2467.43,-93.5234 2407.83,-95.1074 2344.43,-72 2218.53,-26.1103 1803.79,-19.8703 1663.38,-19.0877"/>
<polygon fill="#757575" stroke="#757575" points="1662.99,-15.5859 1652.97,-19.037 1662.96,-22.5858 1662.99,-15.5859"/>
</g>
<!-- config/db -->
<g id="node3" class="node"><title>config/db</title>
<ellipse fill="none" stroke="#c6c5fe" cx="1527.43" cy="-162" rx="49.2915" ry="18"/>
<text text-anchor="middle" x="1527.43" y="-158.3" font-family="Arial" font-size="14.00" fill="#c6c5fe">config/db</text>
</g>
<!-- app&#45;&gt;config/db -->
<g id="edge2" class="edge"><title>app&#45;&gt;config/db</title>
<path fill="none" stroke="#757575" d="M1980.33,-516.752C1900.91,-503.213 1665.17,-458.279 1625.43,-396 1569.1,-307.732 1843.35,-297.356 1777.43,-216 1753.8,-186.837 1652.2,-173.071 1586.01,-167.089"/>
<polygon fill="#757575" stroke="#757575" points="1585.98,-163.573 1575.71,-166.195 1585.37,-170.547 1585.98,-163.573"/>
</g>
<!-- config/passport -->
<g id="node4" class="node"><title>config/passport</title>
<ellipse fill="none" stroke="#c6c5fe" cx="2326.43" cy="-378" rx="74.9875" ry="18"/>
<text text-anchor="middle" x="2326.43" y="-374.3" font-family="Arial" font-size="14.00" fill="#c6c5fe">config/passport</text>
</g>
<!-- app&#45;&gt;config/passport -->
<g id="edge3" class="edge"><title>app&#45;&gt;config/passport</title>
<path fill="none" stroke="#757575" d="M2032.13,-516.058C2068.33,-508.547 2135.89,-492.491 2189.43,-468 2228.99,-449.902 2270.33,-421.537 2297.12,-401.708"/>
<polygon fill="#757575" stroke="#757575" points="2299.37,-404.39 2305.28,-395.593 2295.18,-398.787 2299.37,-404.39"/>
</g>
<!-- logger/logger -->
<g id="node5" class="node"><title>logger/logger</title>
<ellipse fill="none" stroke="#c6c5fe" cx="1616.43" cy="-90" rx="65.7887" ry="18"/>
<text text-anchor="middle" x="1616.43" y="-86.3" font-family="Arial" font-size="14.00" fill="#c6c5fe">logger/logger</text>
</g>
<!-- app&#45;&gt;logger/logger -->
<g id="edge4" class="edge"><title>app&#45;&gt;logger/logger</title>
<path fill="none" stroke="#757575" d="M1979.31,-520.504C1845.16,-517.919 1239.22,-504.663 744.429,-468 412.462,-443.402 120.144,-637.926 9.4287,-324 -21.6776,-235.8 30.2402,-175.139 118.429,-144 252.803,-96.5525 1253.93,-91.4986 1540.19,-91.0282"/>
<polygon fill="#757575" stroke="#757575" points="1540.47,-94.5279 1550.47,-91.0128 1540.46,-87.5279 1540.47,-94.5279"/>
</g>
<!-- package -->
<g id="node6" class="node"><title>package</title>
<ellipse fill="none" stroke="#cfffac" cx="2265.43" cy="-90" rx="46.2923" ry="18"/>
<text text-anchor="middle" x="2265.43" y="-86.3" font-family="Arial" font-size="14.00" fill="#cfffac">package</text>
</g>
<!-- app&#45;&gt;package -->
<g id="edge5" class="edge"><title>app&#45;&gt;package</title>
<path fill="none" stroke="#757575" d="M2032.54,-517.382C2075.79,-510.858 2164.57,-495.208 2235.43,-468 2266.26,-456.162 2270.16,-445.195 2300.43,-432 2347.58,-411.446 2380.24,-437.648 2410.43,-396 2479.78,-300.338 2350.09,-166.285 2291.76,-113.562"/>
<polygon fill="#757575" stroke="#757575" points="2293.82,-110.714 2284.03,-106.675 2289.16,-115.94 2293.82,-110.714"/>
</g>
<!-- routes/accounts -->
<g id="node7" class="node"><title>routes/accounts</title>
<ellipse fill="none" stroke="#c6c5fe" cx="2084.43" cy="-450" rx="76.0865" ry="18"/>
<text text-anchor="middle" x="2084.43" y="-446.3" font-family="Arial" font-size="14.00" fill="#c6c5fe">routes/accounts</text>
</g>
<!-- app&#45;&gt;routes/accounts -->
<g id="edge6" class="edge"><title>app&#45;&gt;routes/accounts</title>
<path fill="none" stroke="#757575" d="M2021.84,-507.17C2032.26,-497.822 2046.27,-485.248 2058.39,-474.366"/>
<polygon fill="#757575" stroke="#757575" points="2060.93,-476.794 2066.03,-467.51 2056.25,-471.584 2060.93,-476.794"/>
</g>
<!-- routes/admin -->
<g id="node8" class="node"><title>routes/admin</title>
<ellipse fill="none" stroke="#c6c5fe" cx="817.429" cy="-450" rx="63.8893" ry="18"/>
<text text-anchor="middle" x="817.429" y="-446.3" font-family="Arial" font-size="14.00" fill="#c6c5fe">routes/admin</text>
</g>
<!-- app&#45;&gt;routes/admin -->
<g id="edge7" class="edge"><title>app&#45;&gt;routes/admin</title>
<path fill="none" stroke="#757575" d="M1979.64,-519.423C1832.46,-510.758 1120.24,-468.828 889.64,-455.251"/>
<polygon fill="#757575" stroke="#757575" points="889.541,-451.739 879.352,-454.646 889.129,-458.727 889.541,-451.739"/>
</g>
<!-- routes/errors -->
<g id="node9" class="node"><title>routes/errors</title>
<ellipse fill="none" stroke="#c6c5fe" cx="2170.43" cy="-378" rx="63.8893" ry="18"/>
<text text-anchor="middle" x="2170.43" y="-374.3" font-family="Arial" font-size="14.00" fill="#c6c5fe">routes/errors</text>
</g>
<!-- app&#45;&gt;routes/errors -->
<g id="edge8" class="edge"><title>app&#45;&gt;routes/errors</title>
<path fill="none" stroke="#757575" d="M2033.55,-521.136C2071.14,-519.681 2137.97,-510.799 2169.43,-468 2182.32,-450.456 2181.33,-425.262 2177.82,-406.154"/>
<polygon fill="#757575" stroke="#757575" points="2181.22,-405.291 2175.69,-396.252 2174.37,-406.765 2181.22,-405.291"/>
</g>
<!-- routes/explore -->
<g id="node10" class="node"><title>routes/explore</title>
<ellipse fill="none" stroke="#c6c5fe" cx="1704.43" cy="-378" rx="69.5877" ry="18"/>
<text text-anchor="middle" x="1704.43" y="-374.3" font-family="Arial" font-size="14.00" fill="#c6c5fe">routes/explore</text>
</g>
<!-- app&#45;&gt;routes/explore -->
<g id="edge9" class="edge"><title>app&#45;&gt;routes/explore</title>
<path fill="none" stroke="#757575" d="M1981.83,-514.556C1950.35,-505.893 1894.5,-489.11 1849.43,-468 1808.22,-448.698 1764.1,-420.395 1735.49,-400.915"/>
<polygon fill="#757575" stroke="#757575" points="1737.35,-397.95 1727.13,-395.173 1733.39,-403.72 1737.35,-397.95"/>
</g>
<!-- routes/index -->
<g id="node11" class="node"><title>routes/index</title>
<ellipse fill="none" stroke="#c6c5fe" cx="1929.43" cy="-450" rx="61.1893" ry="18"/>
<text text-anchor="middle" x="1929.43" y="-446.3" font-family="Arial" font-size="14.00" fill="#c6c5fe">routes/index</text>
</g>
<!-- app&#45;&gt;routes/index -->
<g id="edge10" class="edge"><title>app&#45;&gt;routes/index</title>
<path fill="none" stroke="#757575" d="M1990.85,-506.834C1980.54,-497.462 1966.78,-484.955 1954.9,-474.155"/>
<polygon fill="#757575" stroke="#757575" points="1957.17,-471.491 1947.42,-467.354 1952.46,-476.67 1957.17,-471.491"/>
</g>
<!-- routes/teapot -->
<g id="node12" class="node"><title>routes/teapot</title>
<ellipse fill="none" stroke="#cfffac" cx="2374.43" cy="-450" rx="64.9885" ry="18"/>
<text text-anchor="middle" x="2374.43" y="-446.3" font-family="Arial" font-size="14.00" fill="#cfffac">routes/teapot</text>
</g>
<!-- app&#45;&gt;routes/teapot -->
<g id="edge11" class="edge"><title>app&#45;&gt;routes/teapot</title>
<path fill="none" stroke="#757575" d="M2032.39,-516.514C2083.05,-507.698 2198.63,-487.287 2295.43,-468 2301.9,-466.711 2308.66,-465.321 2315.38,-463.912"/>
<polygon fill="#757575" stroke="#757575" points="2316.11,-467.336 2325.17,-461.843 2314.66,-460.487 2316.11,-467.336"/>
</g>
<!-- services/siteBuilder -->
<g id="node13" class="node"><title>services/siteBuilder</title>
<ellipse fill="none" stroke="#c6c5fe" cx="1883.43" cy="-378" rx="90.9839" ry="18"/>
<text text-anchor="middle" x="1883.43" y="-374.3" font-family="Arial" font-size="14.00" fill="#c6c5fe">services/siteBuilder</text>
</g>
<!-- app&#45;&gt;services/siteBuilder -->
<g id="edge12" class="edge"><title>app&#45;&gt;services/siteBuilder</title>
<path fill="none" stroke="#757575" d="M1979.49,-520.084C1945.06,-517.29 1886.64,-506.737 1859.43,-468 1846.23,-449.206 1855.37,-423.513 1865.95,-404.563"/>
<polygon fill="#757575" stroke="#757575" points="1869.03,-406.238 1871.17,-395.862 1863.03,-402.637 1869.03,-406.238"/>
</g>
<!-- config/db&#45;&gt;config -->
<g id="edge13" class="edge"><title>config/db&#45;&gt;config</title>
<path fill="none" stroke="#757575" d="M1526.32,-143.912C1525.91,-124.93 1527.73,-94.0562 1541.43,-72 1550.97,-56.6341 1566.79,-44.4783 1581.44,-35.7053"/>
<polygon fill="#757575" stroke="#757575" points="1583.36,-38.6428 1590.35,-30.6816 1579.92,-32.5457 1583.36,-38.6428"/>
</g>
<!-- config/db&#45;&gt;logger/logger -->
<g id="edge14" class="edge"><title>config/db&#45;&gt;logger/logger</title>
<path fill="none" stroke="#757575" d="M1547.18,-145.465C1559.14,-136.058 1574.6,-123.902 1587.87,-113.461"/>
<polygon fill="#757575" stroke="#757575" points="1590.11,-116.155 1595.8,-107.222 1585.78,-110.653 1590.11,-116.155"/>
</g>
<!-- config/db&#45;&gt;package -->
<g id="edge15" class="edge"><title>config/db&#45;&gt;package</title>
<path fill="none" stroke="#757575" d="M1574.72,-156.515C1705.54,-144.106 2071.76,-109.37 2210.88,-96.1744"/>
<polygon fill="#757575" stroke="#757575" points="2211.26,-99.6537 2220.89,-95.2249 2210.6,-92.6849 2211.26,-99.6537"/>
</g>
<!-- config/passport&#45;&gt;logger/logger -->
<g id="edge16" class="edge"><title>config/passport&#45;&gt;logger/logger</title>
<path fill="none" stroke="#757575" d="M2317.09,-359.896C2298.98,-328.035 2256.29,-258.945 2204.43,-216 2149.01,-170.11 2128.38,-164.573 2059.43,-144 1934.18,-106.626 1781.57,-95.4951 1692.08,-92.2489"/>
<polygon fill="#757575" stroke="#757575" points="1692.14,-88.7488 1682.03,-91.9076 1691.9,-95.7448 1692.14,-88.7488"/>
</g>
<!-- models/user -->
<g id="node14" class="node"><title>models/user</title>
<ellipse fill="none" stroke="#c6c5fe" cx="2000.43" cy="-234" rx="61.99" ry="18"/>
<text text-anchor="middle" x="2000.43" y="-230.3" font-family="Arial" font-size="14.00" fill="#c6c5fe">models/user</text>
</g>
<!-- config/passport&#45;&gt;models/user -->
<g id="edge17" class="edge"><title>config/passport&#45;&gt;models/user</title>
<path fill="none" stroke="#757575" d="M2308.94,-360.379C2286.95,-340.358 2247.22,-307.046 2207.43,-288 2161.89,-266.204 2106.27,-252.604 2064.16,-244.645"/>
<polygon fill="#757575" stroke="#757575" points="2064.77,-241.199 2054.3,-242.839 2063.51,-248.084 2064.77,-241.199"/>
</g>
<!-- services/userHelper -->
<g id="node15" class="node"><title>services/userHelper</title>
<ellipse fill="none" stroke="#c6c5fe" cx="2105.43" cy="-306" rx="92.8835" ry="18"/>
<text text-anchor="middle" x="2105.43" y="-302.3" font-family="Arial" font-size="14.00" fill="#c6c5fe">services/userHelper</text>
</g>
<!-- config/passport&#45;&gt;services/userHelper -->
<g id="edge18" class="edge"><title>config/passport&#45;&gt;services/userHelper</title>
<path fill="none" stroke="#757575" d="M2283.03,-363.254C2248.3,-352.252 2199.33,-336.742 2161.6,-324.793"/>
<polygon fill="#757575" stroke="#757575" points="2162.37,-321.364 2151.78,-321.681 2160.25,-328.037 2162.37,-321.364"/>
</g>
<!-- logger/logger&#45;&gt;config -->
<g id="edge42" class="edge"><title>logger/logger&#45;&gt;config</title>
<path fill="none" stroke="#757575" d="M1616.43,-71.6966C1616.43,-63.9827 1616.43,-54.7125 1616.43,-46.1124"/>
<polygon fill="#757575" stroke="#757575" points="1619.93,-46.1043 1616.43,-36.1043 1612.93,-46.1044 1619.93,-46.1043"/>
</g>
<!-- routes/accounts&#45;&gt;services/userHelper -->
<g id="edge53" class="edge"><title>routes/accounts&#45;&gt;services/userHelper</title>
<path fill="none" stroke="#757575" d="M2086.9,-431.935C2089.49,-414.016 2093.71,-385.022 2097.43,-360 2098.68,-351.586 2100.06,-342.424 2101.31,-334.12"/>
<polygon fill="#757575" stroke="#757575" points="2104.78,-334.594 2102.81,-324.183 2097.86,-333.546 2104.78,-334.594"/>
</g>
<!-- routes/admin&#45;&gt;config -->
<g id="edge54" class="edge"><title>routes/admin&#45;&gt;config</title>
<path fill="none" stroke="#757575" d="M754.254,-447.417C584.555,-442.76 127.549,-427.422 67.4287,-396 -5.74978,-357.752 -8.18658,-293.077 21.4287,-216 54.2312,-130.628 81.8456,-101.459 168.429,-72 303.512,-26.0398 1336.55,-19.9157 1569.75,-19.1172"/>
<polygon fill="#757575" stroke="#757575" points="1569.94,-22.6167 1579.93,-19.0841 1569.92,-15.6168 1569.94,-22.6167"/>
</g>
<!-- routes/admin&#45;&gt;config/db -->
<g id="edge55" class="edge"><title>routes/admin&#45;&gt;config/db</title>
<path fill="none" stroke="#757575" d="M753.423,-449.539C534.804,-449.48 -157.515,-432.581 51.4287,-216 101.361,-164.242 1197.64,-162.498 1467.71,-162.857"/>
<polygon fill="#757575" stroke="#757575" points="1468.09,-166.358 1478.09,-162.872 1468.1,-159.358 1468.09,-166.358"/>
</g>
<!-- routes/admin&#45;&gt;services/userHelper -->
<g id="edge59" class="edge"><title>routes/admin&#45;&gt;services/userHelper</title>
<path fill="none" stroke="#757575" d="M881.048,-448.932C1109.97,-448.301 1883.49,-442.7 1983.43,-396 2003.09,-386.811 1999.59,-373.698 2016.43,-360 2031.12,-348.046 2048.79,-336.956 2064.5,-328.044"/>
<polygon fill="#757575" stroke="#757575" points="2066.44,-330.971 2073.48,-323.058 2063.04,-324.85 2066.44,-330.971"/>
</g>
<!-- db/clearDb -->
<g id="node16" class="node"><title>db/clearDb</title>
<ellipse fill="none" stroke="#c6c5fe" cx="902.429" cy="-378" rx="55.7903" ry="18"/>
<text text-anchor="middle" x="902.429" y="-374.3" font-family="Arial" font-size="14.00" fill="#c6c5fe">db/clearDb</text>
</g>
<!-- routes/admin&#45;&gt;db/clearDb -->
<g id="edge56" class="edge"><title>routes/admin&#45;&gt;db/clearDb</title>
<path fill="none" stroke="#757575" d="M837.143,-432.765C848.488,-423.422 862.908,-411.546 875.309,-401.334"/>
<polygon fill="#757575" stroke="#757575" points="877.62,-403.965 883.114,-394.906 873.17,-398.561 877.62,-403.965"/>
</g>
<!-- models/systemDefaults -->
<g id="node19" class="node"><title>models/systemDefaults</title>
<ellipse fill="none" stroke="#c6c5fe" cx="168.429" cy="-234" rx="107.781" ry="18"/>
<text text-anchor="middle" x="168.429" y="-230.3" font-family="Arial" font-size="14.00" fill="#c6c5fe">models/systemDefaults</text>
</g>
<!-- routes/admin&#45;&gt;models/systemDefaults -->
<g id="edge58" class="edge"><title>routes/admin&#45;&gt;models/systemDefaults</title>
<path fill="none" stroke="#757575" d="M774.522,-436.594C700.193,-414.925 542.828,-368.257 411.429,-324 344.369,-301.413 267.845,-272.931 218.886,-254.357"/>
<polygon fill="#757575" stroke="#757575" points="220.064,-251.061 209.472,-250.779 217.576,-257.604 220.064,-251.061"/>
</g>
<!-- db/seedDb -->
<g id="node26" class="node"><title>db/seedDb</title>
<ellipse fill="none" stroke="#c6c5fe" cx="817.429" cy="-306" rx="57.3905" ry="18"/>
<text text-anchor="middle" x="817.429" y="-302.3" font-family="Arial" font-size="14.00" fill="#c6c5fe">db/seedDb</text>
</g>
<!-- routes/admin&#45;&gt;db/seedDb -->
<g id="edge57" class="edge"><title>routes/admin&#45;&gt;db/seedDb</title>
<path fill="none" stroke="#757575" d="M817.429,-431.871C817.429,-407.67 817.429,-363.211 817.429,-334.393"/>
<polygon fill="#757575" stroke="#757575" points="820.929,-334.189 817.429,-324.189 813.929,-334.189 820.929,-334.189"/>
</g>
<!-- routes/errors&#45;&gt;config/db -->
<g id="edge60" class="edge"><title>routes/errors&#45;&gt;config/db</title>
<path fill="none" stroke="#757575" d="M2186.25,-360.558C2201.95,-342.154 2221.76,-311.797 2207.43,-288 2172.15,-229.408 2136.93,-235.689 2071.43,-216 1981.91,-189.092 1708,-172.211 1586.52,-165.859"/>
<polygon fill="#757575" stroke="#757575" points="1586.46,-162.352 1576.29,-165.331 1586.1,-169.342 1586.46,-162.352"/>
</g>
<!-- routes/errors&#45;&gt;logger/logger -->
<g id="edge61" class="edge"><title>routes/errors&#45;&gt;logger/logger</title>
<path fill="none" stroke="#757575" d="M2193.67,-361.238C2205.26,-351.924 2218.13,-339.02 2224.43,-324 2230.62,-309.247 2231.2,-302.497 2224.43,-288 2171.31,-174.253 2101.83,-179.548 1981.43,-144 1883.04,-114.951 1764.84,-101.503 1690.16,-95.5066"/>
<polygon fill="#757575" stroke="#757575" points="1690.16,-91.9961 1679.92,-94.7091 1689.62,-98.9749 1690.16,-91.9961"/>
</g>
<!-- routes/errors&#45;&gt;services/userHelper -->
<g id="edge62" class="edge"><title>routes/errors&#45;&gt;services/userHelper</title>
<path fill="none" stroke="#757575" d="M2155.02,-360.411C2146.97,-351.734 2136.95,-340.946 2128.03,-331.342"/>
<polygon fill="#757575" stroke="#757575" points="2130.54,-328.903 2121.17,-323.956 2125.41,-333.666 2130.54,-328.903"/>
</g>
<!-- routes/explore&#45;&gt;config/db -->
<g id="edge63" class="edge"><title>routes/explore&#45;&gt;config/db</title>
<path fill="none" stroke="#757575" d="M1728.69,-361.114C1771.32,-331.282 1851.47,-265.44 1810.43,-216 1782.53,-182.389 1660.81,-169.968 1586.39,-165.47"/>
<polygon fill="#757575" stroke="#757575" points="1586.4,-161.965 1576.21,-164.886 1586,-168.953 1586.4,-161.965"/>
</g>
<!-- routes/explore&#45;&gt;services/userHelper -->
<g id="edge66" class="edge"><title>routes/explore&#45;&gt;services/userHelper</title>
<path fill="none" stroke="#757575" d="M1755.35,-365.66C1764.67,-363.693 1774.33,-361.726 1783.43,-360 1865.06,-344.509 1958.84,-329.373 2024.05,-319.269"/>
<polygon fill="#757575" stroke="#757575" points="2024.92,-322.677 2034.27,-317.692 2023.85,-315.759 2024.92,-322.677"/>
</g>
<!-- models/book -->
<g id="node17" class="node"><title>models/book</title>
<ellipse fill="none" stroke="#c6c5fe" cx="1704.43" cy="-234" rx="64.189" ry="18"/>
<text text-anchor="middle" x="1704.43" y="-230.3" font-family="Arial" font-size="14.00" fill="#c6c5fe">models/book</text>
</g>
<!-- routes/explore&#45;&gt;models/book -->
<g id="edge64" class="edge"><title>routes/explore&#45;&gt;models/book</title>
<path fill="none" stroke="#757575" d="M1704.43,-359.871C1704.43,-335.67 1704.43,-291.211 1704.43,-262.393"/>
<polygon fill="#757575" stroke="#757575" points="1707.93,-262.189 1704.43,-252.189 1700.93,-262.189 1707.93,-262.189"/>
</g>
<!-- services/dbHelper -->
<g id="node25" class="node"><title>services/dbHelper</title>
<ellipse fill="none" stroke="#c6c5fe" cx="1458.43" cy="-306" rx="85.5853" ry="18"/>
<text text-anchor="middle" x="1458.43" y="-302.3" font-family="Arial" font-size="14.00" fill="#c6c5fe">services/dbHelper</text>
</g>
<!-- routes/explore&#45;&gt;services/dbHelper -->
<g id="edge65" class="edge"><title>routes/explore&#45;&gt;services/dbHelper</title>
<path fill="none" stroke="#757575" d="M1659.31,-364.161C1619.2,-352.749 1560.33,-335.997 1516.68,-323.576"/>
<polygon fill="#757575" stroke="#757575" points="1517.63,-320.207 1507.05,-320.836 1515.71,-326.94 1517.63,-320.207"/>
</g>
<!-- routes/index&#45;&gt;services/userHelper -->
<g id="edge67" class="edge"><title>routes/index&#45;&gt;services/userHelper</title>
<path fill="none" stroke="#757575" d="M1957.97,-433.898C1975.52,-424.069 1998.08,-410.429 2016.43,-396 2041.38,-376.383 2066.67,-350.376 2083.88,-331.544"/>
<polygon fill="#757575" stroke="#757575" points="2086.63,-333.72 2090.74,-323.953 2081.44,-329.028 2086.63,-333.72"/>
</g>
<!-- services/siteBuilder&#45;&gt;config -->
<g id="edge80" class="edge"><title>services/siteBuilder&#45;&gt;config</title>
<path fill="none" stroke="#757575" d="M1912.06,-360.692C1928.53,-350.84 1949.28,-337.59 1966.43,-324 1984.41,-309.752 1983.57,-299.5 2003.43,-288 2053.83,-258.809 2077.3,-277.968 2129.43,-252 2233.84,-199.99 2399.75,-157.521 2320.43,-72 2275.81,-23.8983 1813.37,-19.184 1663.22,-18.9291"/>
<polygon fill="#757575" stroke="#757575" points="1662.97,-15.4289 1652.96,-18.9179 1662.96,-22.4289 1662.97,-15.4289"/>
</g>
<!-- services/siteBuilder&#45;&gt;config/db -->
<g id="edge81" class="edge"><title>services/siteBuilder&#45;&gt;config/db</title>
<path fill="none" stroke="#757575" d="M1883.21,-359.815C1881.78,-326.546 1873.61,-253.341 1830.43,-216 1794.72,-185.12 1663.8,-171.613 1586.22,-166.212"/>
<polygon fill="#757575" stroke="#757575" points="1586.32,-162.711 1576.11,-165.533 1585.85,-169.695 1586.32,-162.711"/>
</g>
<!-- services/siteBuilder&#45;&gt;logger/logger -->
<g id="edge82" class="edge"><title>services/siteBuilder&#45;&gt;logger/logger</title>
<path fill="none" stroke="#757575" d="M1888.29,-359.844C1894.91,-339.607 1908.75,-306.396 1932.43,-288 1982.82,-248.849 2032.37,-302.466 2071.43,-252 2081.22,-239.347 2081.13,-228.724 2071.43,-216 2024.67,-154.657 1800.49,-115.923 1685.22,-99.729"/>
<polygon fill="#757575" stroke="#757575" points="1685.47,-96.2308 1675.09,-98.3243 1684.51,-103.165 1685.47,-96.2308"/>
</g>
<!-- services/siteBuilder&#45;&gt;package -->
<g id="edge84" class="edge"><title>services/siteBuilder&#45;&gt;package</title>
<path fill="none" stroke="#757575" d="M1899.3,-359.865C1922.04,-335.462 1962.07,-293.071 1970.43,-288 2017.67,-259.342 2041.4,-279.328 2089.43,-252 2154.4,-215.026 2215.26,-150.136 2245.5,-115.089"/>
<polygon fill="#757575" stroke="#757575" points="2248.34,-117.146 2252.17,-107.265 2243.02,-112.605 2248.34,-117.146"/>
</g>
<!-- services/siteBuilder&#45;&gt;models/systemDefaults -->
<g id="edge83" class="edge"><title>services/siteBuilder&#45;&gt;models/systemDefaults</title>
<path fill="none" stroke="#757575" d="M1820.39,-364.97C1808.17,-363.01 1795.43,-361.224 1783.43,-360 1326.85,-313.438 1208.38,-366.702 751.429,-324 750.657,-323.928 417.301,-273.015 255.083,-248.237"/>
<polygon fill="#757575" stroke="#757575" points="255.537,-244.765 245.123,-246.715 254.48,-251.685 255.537,-244.765"/>
</g>
<!-- services/siteBuilder&#45;&gt;services/dbHelper -->
<g id="edge85" class="edge"><title>services/siteBuilder&#45;&gt;services/dbHelper</title>
<path fill="none" stroke="#757575" d="M1817.01,-365.644C1805.8,-363.747 1794.29,-361.808 1783.43,-360 1698.01,-345.774 1599.89,-329.828 1534.01,-319.177"/>
<polygon fill="#757575" stroke="#757575" points="1534.55,-315.72 1524.12,-317.58 1533.43,-322.63 1534.55,-315.72"/>
</g>
<!-- models/user&#45;&gt;config -->
<g id="edge48" class="edge"><title>models/user&#45;&gt;config</title>
<path fill="none" stroke="#757575" d="M1989.74,-216.27C1967.63,-183.145 1913.5,-109.204 1848.43,-72 1789.83,-38.4972 1711.53,-26.1705 1662.55,-21.6364"/>
<polygon fill="#757575" stroke="#757575" points="1662.82,-18.147 1652.56,-20.7824 1662.22,-25.1215 1662.82,-18.147"/>
</g>
<!-- models/user&#45;&gt;config/db -->
<g id="edge49" class="edge"><title>models/user&#45;&gt;config/db</title>
<path fill="none" stroke="#757575" d="M1954.34,-222.014C1944.5,-219.858 1934.15,-217.732 1924.43,-216 1804.05,-194.543 1661.72,-177.555 1584.4,-169.022"/>
<polygon fill="#757575" stroke="#757575" points="1584.71,-165.535 1574.39,-167.924 1583.95,-172.493 1584.71,-165.535"/>
</g>
<!-- services/userHelper&#45;&gt;models/user -->
<g id="edge86" class="edge"><title>services/userHelper&#45;&gt;models/user</title>
<path fill="none" stroke="#757575" d="M2080.81,-288.588C2066.52,-279.062 2048.35,-266.948 2032.9,-256.649"/>
<polygon fill="#757575" stroke="#757575" points="2034.43,-253.462 2024.17,-250.827 2030.55,-259.287 2034.43,-253.462"/>
</g>
<!-- db/clearDb&#45;&gt;config -->
<g id="edge19" class="edge"><title>db/clearDb&#45;&gt;config</title>
<path fill="none" stroke="#757575" d="M846.596,-376.096C673.782,-372.922 155.3,-360.432 89.4287,-324 42.8099,-298.216 4.92398,-258.209 37.4287,-216 190.29,-17.5034 334.888,-110.619 582.429,-72 776.816,-41.6732 1394.81,-24.4582 1569.83,-20.1058"/>
<polygon fill="#757575" stroke="#757575" points="1570.08,-23.6007 1579.99,-19.8551 1569.91,-16.6028 1570.08,-23.6007"/>
</g>
<!-- db/clearDb&#45;&gt;logger/logger -->
<g id="edge20" class="edge"><title>db/clearDb&#45;&gt;logger/logger</title>
<path fill="none" stroke="#757575" d="M846.934,-375.793C642.167,-370.335 -53.8068,-342.383 51.4287,-216 147.577,-100.53 1239.25,-91.2399 1540.08,-90.8834"/>
<polygon fill="#757575" stroke="#757575" points="1540.45,-94.3831 1550.44,-90.8743 1540.44,-87.3832 1540.45,-94.3831"/>
</g>
<!-- db/clearDb&#45;&gt;models/user -->
<g id="edge26" class="edge"><title>db/clearDb&#45;&gt;models/user</title>
<path fill="none" stroke="#757575" d="M958.248,-375.546C1077.49,-371.837 1365.69,-359.646 1604.43,-324 1728.65,-305.452 1871.87,-269.586 1947.41,-249.51"/>
<polygon fill="#757575" stroke="#757575" points="1948.41,-252.866 1957.16,-246.904 1946.6,-246.103 1948.41,-252.866"/>
</g>
<!-- db/clearDb&#45;&gt;models/book -->
<g id="edge21" class="edge"><title>db/clearDb&#45;&gt;models/book</title>
<path fill="none" stroke="#757575" d="M957.947,-375.667C1094.39,-371.883 1443.04,-358.987 1553.43,-324 1599.63,-309.357 1646.79,-278.483 1675.84,-257.243"/>
<polygon fill="#757575" stroke="#757575" points="1677.95,-260.033 1683.89,-251.26 1673.78,-254.415 1677.95,-260.033"/>
</g>
<!-- models/interest -->
<g id="node18" class="node"><title>models/interest</title>
<ellipse fill="none" stroke="#c6c5fe" cx="624.429" cy="-234" rx="74.187" ry="18"/>
<text text-anchor="middle" x="624.429" y="-230.3" font-family="Arial" font-size="14.00" fill="#c6c5fe">models/interest</text>
</g>
<!-- db/clearDb&#45;&gt;models/interest -->
<g id="edge22" class="edge"><title>db/clearDb&#45;&gt;models/interest</title>
<path fill="none" stroke="#757575" d="M861.123,-365.842C830.046,-356.66 786.895,-342.213 751.429,-324 715.063,-305.326 677.159,-277.495 652.335,-257.938"/>
<polygon fill="#757575" stroke="#757575" points="654.441,-255.141 644.438,-251.649 650.079,-260.617 654.441,-255.141"/>
</g>
<!-- db/clearDb&#45;&gt;models/systemDefaults -->
<g id="edge23" class="edge"><title>db/clearDb&#45;&gt;models/systemDefaults</title>
<path fill="none" stroke="#757575" d="M853.207,-369.384C791.118,-359.624 681.133,-341.827 587.429,-324 464.751,-300.661 322.73,-269.646 239.527,-251.068"/>
<polygon fill="#757575" stroke="#757575" points="240.2,-247.632 229.678,-248.865 238.673,-254.463 240.2,-247.632"/>
</g>
<!-- models/systemMessage -->
<g id="node20" class="node"><title>models/systemMessage</title>
<ellipse fill="none" stroke="#c6c5fe" cx="828.429" cy="-234" rx="111.581" ry="18"/>
<text text-anchor="middle" x="828.429" y="-230.3" font-family="Arial" font-size="14.00" fill="#c6c5fe">models/systemMessage</text>
</g>
<!-- db/clearDb&#45;&gt;models/systemMessage -->
<g id="edge24" class="edge"><title>db/clearDb&#45;&gt;models/systemMessage</title>
<path fill="none" stroke="#757575" d="M901.733,-359.896C900.323,-341.174 896.09,-310.788 883.429,-288 877.29,-276.952 868.099,-266.784 858.979,-258.372"/>
<polygon fill="#757575" stroke="#757575" points="861.232,-255.693 851.403,-251.738 856.62,-260.959 861.232,-255.693"/>
</g>
<!-- models/transaction -->
<g id="node21" class="node"><title>models/transaction</title>
<ellipse fill="none" stroke="#c6c5fe" cx="1046.43" cy="-234" rx="88.2844" ry="18"/>
<text text-anchor="middle" x="1046.43" y="-230.3" font-family="Arial" font-size="14.00" fill="#c6c5fe">models/transaction</text>
</g>
<!-- db/clearDb&#45;&gt;models/transaction -->
<g id="edge25" class="edge"><title>db/clearDb&#45;&gt;models/transaction</title>
<path fill="none" stroke="#757575" d="M918.947,-360.711C944.175,-335.834 992.459,-288.22 1021.82,-259.265"/>
<polygon fill="#757575" stroke="#757575" points="1024.55,-261.492 1029.21,-251.979 1019.63,-256.508 1024.55,-261.492"/>
</g>
<!-- models/userMessage -->
<g id="node22" class="node"><title>models/userMessage</title>
<ellipse fill="none" stroke="#c6c5fe" cx="1252.43" cy="-234" rx="100.182" ry="18"/>
<text text-anchor="middle" x="1252.43" y="-230.3" font-family="Arial" font-size="14.00" fill="#c6c5fe">models/userMessage</text>
</g>
<!-- db/clearDb&#45;&gt;models/userMessage -->
<g id="edge27" class="edge"><title>db/clearDb&#45;&gt;models/userMessage</title>
<path fill="none" stroke="#757575" d="M935.671,-363.513C997.972,-338.237 1132.49,-283.659 1204.56,-254.423"/>
<polygon fill="#757575" stroke="#757575" points="1205.92,-257.646 1213.87,-250.643 1203.29,-251.16 1205.92,-257.646"/>
</g>
<!-- models/userRating -->
<g id="node23" class="node"><title>models/userRating</title>
<ellipse fill="none" stroke="#c6c5fe" cx="1458.43" cy="-234" rx="88.2844" ry="18"/>
<text text-anchor="middle" x="1458.43" y="-230.3" font-family="Arial" font-size="14.00" fill="#c6c5fe">models/userRating</text>
</g>
<!-- db/clearDb&#45;&gt;models/userRating -->
<g id="edge28" class="edge"><title>db/clearDb&#45;&gt;models/userRating</title>
<path fill="none" stroke="#757575" d="M944.675,-366.21C1041.72,-341.425 1281,-280.316 1395.46,-251.083"/>
<polygon fill="#757575" stroke="#757575" points="1396.65,-254.391 1405.47,-248.525 1394.92,-247.609 1396.65,-254.391"/>
</g>
<!-- models/userRole -->
<g id="node24" class="node"><title>models/userRole</title>
<ellipse fill="none" stroke="#c6c5fe" cx="451.429" cy="-234" rx="81.4863" ry="18"/>
<text text-anchor="middle" x="451.429" y="-230.3" font-family="Arial" font-size="14.00" fill="#c6c5fe">models/userRole</text>
</g>
<!-- db/clearDb&#45;&gt;models/userRole -->
<g id="edge29" class="edge"><title>db/clearDb&#45;&gt;models/userRole</title>
<path fill="none" stroke="#757575" d="M857.36,-367.268C814.166,-357.58 747.319,-341.643 690.429,-324 622.379,-302.895 545.448,-273.158 497.688,-253.979"/>
<polygon fill="#757575" stroke="#757575" points="498.828,-250.665 488.244,-250.172 496.21,-257.158 498.828,-250.665"/>
</g>
<!-- db/clearDb&#45;&gt;services/dbHelper -->
<g id="edge30" class="edge"><title>db/clearDb&#45;&gt;services/dbHelper</title>
<path fill="none" stroke="#757575" d="M953.958,-370.805C1034.53,-361.081 1195.22,-341.53 1331.43,-324 1346.63,-322.043 1362.85,-319.908 1378.44,-317.833"/>
<polygon fill="#757575" stroke="#757575" points="1379.13,-321.272 1388.57,-316.48 1378.2,-314.334 1379.13,-321.272"/>
</g>
<!-- models/book&#45;&gt;config/db -->
<g id="edge43" class="edge"><title>models/book&#45;&gt;config/db</title>
<path fill="none" stroke="#757575" d="M1668.61,-218.834C1639.81,-207.443 1599.3,-191.423 1569.05,-179.462"/>
<polygon fill="#757575" stroke="#757575" points="1570.21,-176.155 1559.62,-175.732 1567.64,-182.665 1570.21,-176.155"/>
</g>
<!-- models/interest&#45;&gt;config/db -->
<g id="edge44" class="edge"><title>models/interest&#45;&gt;config/db</title>
<path fill="none" stroke="#757575" d="M676.932,-221.112C687.012,-219.152 697.515,-217.329 707.429,-216 990.614,-178.031 1332.6,-167.032 1468.05,-164.043"/>
<polygon fill="#757575" stroke="#757575" points="1468.29,-167.539 1478.21,-163.826 1468.14,-160.541 1468.29,-167.539"/>
</g>
<!-- models/systemDefaults&#45;&gt;config/db -->
<g id="edge45" class="edge"><title>models/systemDefaults&#45;&gt;config/db</title>
<path fill="none" stroke="#757575" d="M259.185,-224.207C291.443,-221.293 328.034,-218.229 361.429,-216 785.205,-187.718 1296.65,-170.22 1468.15,-164.805"/>
<polygon fill="#757575" stroke="#757575" points="1468.35,-168.301 1478.23,-164.489 1468.13,-161.304 1468.35,-168.301"/>
</g>
<!-- models/systemMessage&#45;&gt;config/db -->
<g id="edge46" class="edge"><title>models/systemMessage&#45;&gt;config/db</title>
<path fill="none" stroke="#757575" d="M907.765,-221.297C921.637,-219.41 935.943,-217.565 949.429,-216 1139.3,-193.97 1365.13,-175.489 1469.39,-167.392"/>
<polygon fill="#757575" stroke="#757575" points="1469.69,-170.879 1479.39,-166.618 1469.15,-163.9 1469.69,-170.879"/>
</g>
<!-- models/transaction&#45;&gt;config/db -->
<g id="edge47" class="edge"><title>models/transaction&#45;&gt;config/db</title>
<path fill="none" stroke="#757575" d="M1110.29,-221.468C1121.33,-219.572 1132.7,-217.68 1143.43,-216 1259.8,-197.779 1396.53,-179.7 1471.4,-170.085"/>
<polygon fill="#757575" stroke="#757575" points="1472.07,-173.528 1481.54,-168.786 1471.18,-166.585 1472.07,-173.528"/>
</g>
<!-- models/userMessage&#45;&gt;config/db -->
<g id="edge50" class="edge"><title>models/userMessage&#45;&gt;config/db</title>
<path fill="none" stroke="#757575" d="M1307.75,-218.919C1357.68,-206.209 1430.45,-187.685 1478.35,-175.492"/>
<polygon fill="#757575" stroke="#757575" points="1479.35,-178.849 1488.18,-172.99 1477.63,-172.065 1479.35,-178.849"/>
</g>
<!-- models/userRating&#45;&gt;config/db -->
<g id="edge51" class="edge"><title>models/userRating&#45;&gt;config/db</title>
<path fill="none" stroke="#757575" d="M1475.13,-216.055C1483.82,-207.243 1494.58,-196.328 1504.07,-186.694"/>
<polygon fill="#757575" stroke="#757575" points="1506.83,-188.886 1511.35,-179.307 1501.84,-183.972 1506.83,-188.886"/>
</g>
<!-- models/userRole&#45;&gt;config/db -->
<g id="edge52" class="edge"><title>models/userRole&#45;&gt;config/db</title>
<path fill="none" stroke="#757575" d="M508.384,-221.059C519.312,-219.104 530.694,-217.297 541.429,-216 890.802,-173.804 1313.88,-165.201 1467.8,-163.448"/>
<polygon fill="#757575" stroke="#757575" points="1468.02,-166.946 1477.98,-163.338 1467.94,-159.946 1468.02,-166.946"/>
</g>
<!-- services/dbHelper&#45;&gt;config -->
<g id="edge68" class="edge"><title>services/dbHelper&#45;&gt;config</title>
<path fill="none" stroke="#757575" d="M1528.91,-295.628C1620.4,-283.123 1769.41,-261.462 1777.43,-252 1840.3,-177.817 1709.94,-79.1916 1647.38,-38.1649"/>
<polygon fill="#757575" stroke="#757575" points="1648.98,-35.0268 1638.68,-32.5394 1645.18,-40.9063 1648.98,-35.0268"/>
</g>
<!-- services/dbHelper&#45;&gt;config/db -->
<g id="edge69" class="edge"><title>services/dbHelper&#45;&gt;config/db</title>
<path fill="none" stroke="#757575" d="M1505.82,-290.995C1524.7,-282.83 1544.51,-270.403 1555.43,-252 1567.22,-232.126 1557.17,-206.764 1545.97,-188.203"/>
<polygon fill="#757575" stroke="#757575" points="1548.83,-186.188 1540.46,-179.691 1542.95,-189.989 1548.83,-186.188"/>
</g>
<!-- services/dbHelper&#45;&gt;logger/logger -->
<g id="edge70" class="edge"><title>services/dbHelper&#45;&gt;logger/logger</title>
<path fill="none" stroke="#757575" d="M1510.22,-291.611C1532.23,-283.49 1556.45,-270.928 1572.43,-252 1604.82,-213.642 1613.52,-153.464 1615.76,-118.568"/>
<polygon fill="#757575" stroke="#757575" points="1619.28,-118.349 1616.28,-108.186 1612.28,-117.997 1619.28,-118.349"/>
</g>
<!-- services/dbHelper&#45;&gt;models/user -->
<g id="edge76" class="edge"><title>services/dbHelper&#45;&gt;models/user</title>
<path fill="none" stroke="#757575" d="M1529.29,-295.849C1634.98,-282.198 1832.45,-256.695 1934.94,-243.458"/>
<polygon fill="#757575" stroke="#757575" points="1935.68,-246.891 1945.15,-242.139 1934.79,-239.949 1935.68,-246.891"/>
</g>
<!-- services/dbHelper&#45;&gt;models/book -->
<g id="edge71" class="edge"><title>services/dbHelper&#45;&gt;models/book</title>
<path fill="none" stroke="#757575" d="M1507.32,-291.087C1548.92,-279.25 1608.55,-262.283 1651.31,-250.115"/>
<polygon fill="#757575" stroke="#757575" points="1652.32,-253.467 1660.98,-247.364 1650.4,-246.734 1652.32,-253.467"/>
</g>
<!-- services/dbHelper&#45;&gt;models/interest -->
<g id="edge72" class="edge"><title>services/dbHelper&#45;&gt;models/interest</title>
<path fill="none" stroke="#757575" d="M1373.87,-302.657C1234.44,-297.983 947.804,-284.953 707.429,-252 700.771,-251.087 693.846,-249.959 686.961,-248.721"/>
<polygon fill="#757575" stroke="#757575" points="687.413,-245.245 676.939,-246.841 686.122,-252.125 687.413,-245.245"/>
</g>
<!-- services/dbHelper&#45;&gt;models/systemDefaults -->
<g id="edge73" class="edge"><title>services/dbHelper&#45;&gt;models/systemDefaults</title>
<path fill="none" stroke="#757575" d="M1374.41,-302.076C1190.61,-295.429 739.039,-277.742 361.429,-252 331.559,-249.964 299.13,-247.288 269.531,-244.665"/>
<polygon fill="#757575" stroke="#757575" points="269.461,-241.144 259.189,-243.74 268.837,-248.117 269.461,-241.144"/>
</g>
<!-- services/dbHelper&#45;&gt;models/systemMessage -->
<g id="edge74" class="edge"><title>services/dbHelper&#45;&gt;models/systemMessage</title>
<path fill="none" stroke="#757575" d="M1381.59,-297.864C1281.84,-288.402 1102.44,-270.708 949.429,-252 939.376,-250.771 928.864,-249.409 918.415,-248.006"/>
<polygon fill="#757575" stroke="#757575" points="918.812,-244.528 908.432,-246.652 917.871,-251.465 918.812,-244.528"/>
</g>
<!-- services/dbHelper&#45;&gt;models/transaction -->
<g id="edge75" class="edge"><title>services/dbHelper&#45;&gt;models/transaction</title>
<path fill="none" stroke="#757575" d="M1393.55,-294.217C1329.85,-283.597 1229.92,-266.855 1143.43,-252 1136.11,-250.742 1128.47,-249.422 1120.85,-248.096"/>
<polygon fill="#757575" stroke="#757575" points="1121.31,-244.623 1110.86,-246.355 1120.11,-251.519 1121.31,-244.623"/>
</g>
<!-- services/dbHelper&#45;&gt;models/userMessage -->
<g id="edge77" class="edge"><title>services/dbHelper&#45;&gt;models/userMessage</title>
<path fill="none" stroke="#757575" d="M1415.5,-290.411C1383.94,-279.689 1340.83,-265.039 1306.86,-253.496"/>
<polygon fill="#757575" stroke="#757575" points="1307.68,-250.079 1297.09,-250.175 1305.43,-256.706 1307.68,-250.079"/>
</g>
<!-- services/dbHelper&#45;&gt;models/userRating -->
<g id="edge78" class="edge"><title>services/dbHelper&#45;&gt;models/userRating</title>
<path fill="none" stroke="#757575" d="M1458.43,-287.697C1458.43,-279.983 1458.43,-270.712 1458.43,-262.112"/>
<polygon fill="#757575" stroke="#757575" points="1461.93,-262.104 1458.43,-252.104 1454.93,-262.104 1461.93,-262.104"/>
</g>
<!-- services/dbHelper&#45;&gt;models/userRole -->
<g id="edge79" class="edge"><title>services/dbHelper&#45;&gt;models/userRole</title>
<path fill="none" stroke="#757575" d="M1373.08,-303.736C1210.61,-300.519 845.915,-289.398 541.429,-252 533.966,-251.083 526.191,-249.926 518.472,-248.647"/>
<polygon fill="#757575" stroke="#757575" points="518.838,-245.158 508.388,-246.906 517.647,-252.056 518.838,-245.158"/>
</g>
<!-- db/seedDb&#45;&gt;config -->
<g id="edge31" class="edge"><title>db/seedDb&#45;&gt;config</title>
<path fill="none" stroke="#757575" d="M763.749,-299.386C641.549,-286.547 352.863,-255.845 349.429,-252 338.771,-240.067 342.383,-230.365 349.429,-216 372.447,-169.068 393.932,-163.507 442.429,-144 653.093,-59.2613 1378.49,-27.5702 1569.84,-20.5772"/>
<polygon fill="#757575" stroke="#757575" points="1570.25,-24.065 1580.12,-20.2069 1570,-17.0695 1570.25,-24.065"/>
</g>
<!-- db/seedDb&#45;&gt;logger/logger -->
<g id="edge32" class="edge"><title>db/seedDb&#45;&gt;logger/logger</title>
<path fill="none" stroke="#757575" d="M764.236,-299.278C644.665,-286.355 364.762,-255.743 361.429,-252 350.788,-240.051 350.69,-227.861 361.429,-216 440.917,-128.202 1282.47,-99.5239 1541.19,-92.7478"/>
<polygon fill="#757575" stroke="#757575" points="1541.34,-96.2452 1551.25,-92.4878 1541.16,-89.2476 1541.34,-96.2452"/>
</g>
<!-- db/seedDb&#45;&gt;models/user -->
<g id="edge38" class="edge"><title>db/seedDb&#45;&gt;models/user</title>
<path fill="none" stroke="#757575" d="M873.451,-302.318C1021.28,-295.151 1434.1,-274.561 1777.43,-252 1829.19,-248.599 1887.66,-244.118 1931.73,-240.61"/>
<polygon fill="#757575" stroke="#757575" points="1932.07,-244.094 1941.76,-239.809 1931.52,-237.117 1932.07,-244.094"/>
</g>
<!-- db/seedDb&#45;&gt;models/book -->
<g id="edge33" class="edge"><title>db/seedDb&#45;&gt;models/book</title>
<path fill="none" stroke="#757575" d="M873.506,-301.777C996.903,-294.51 1301.22,-275.62 1555.43,-252 1582.09,-249.523 1611.38,-246.292 1636.88,-243.313"/>
<polygon fill="#757575" stroke="#757575" points="1637.3,-246.788 1646.82,-242.143 1636.48,-239.836 1637.3,-246.788"/>
</g>
<!-- db/seedDb&#45;&gt;models/interest -->
<g id="edge34" class="edge"><title>db/seedDb&#45;&gt;models/interest</title>
<path fill="none" stroke="#757575" d="M781.127,-291.834C750.715,-280.803 707.023,-264.957 673.497,-252.797"/>
<polygon fill="#757575" stroke="#757575" points="674.483,-249.431 663.889,-249.312 672.096,-256.012 674.483,-249.431"/>
</g>
<!-- db/seedDb&#45;&gt;models/systemDefaults -->
<g id="edge35" class="edge"><title>db/seedDb&#45;&gt;models/systemDefaults</title>
<path fill="none" stroke="#757575" d="M770.815,-295.344C756.613,-292.658 740.924,-289.947 726.429,-288 533.722,-262.113 483.682,-273.426 290.429,-252 279.332,-250.77 267.688,-249.334 256.18,-247.828"/>
<polygon fill="#757575" stroke="#757575" points="256.494,-244.339 246.12,-246.49 255.571,-251.278 256.494,-244.339"/>
</g>
<!-- db/seedDb&#45;&gt;models/systemMessage -->
<g id="edge36" class="edge"><title>db/seedDb&#45;&gt;models/systemMessage</title>
<path fill="none" stroke="#757575" d="M820.148,-287.697C821.36,-279.983 822.817,-270.712 824.168,-262.112"/>
<polygon fill="#757575" stroke="#757575" points="827.646,-262.526 825.741,-252.104 820.731,-261.44 827.646,-262.526"/>
</g>
<!-- db/seedDb&#45;&gt;models/transaction -->
<g id="edge37" class="edge"><title>db/seedDb&#45;&gt;models/transaction</title>
<path fill="none" stroke="#757575" d="M857.056,-292.887C893.676,-281.693 948.492,-264.937 989.739,-252.329"/>
<polygon fill="#757575" stroke="#757575" points="990.841,-255.652 999.381,-249.381 988.795,-248.957 990.841,-255.652"/>
</g>
<!-- db/seedDb&#45;&gt;models/userMessage -->
<g id="edge39" class="edge"><title>db/seedDb&#45;&gt;models/userMessage</title>
<path fill="none" stroke="#757575" d="M867.329,-296.97C941.356,-285.058 1081.11,-262.569 1170.35,-248.208"/>
<polygon fill="#757575" stroke="#757575" points="1171.12,-251.63 1180.43,-246.585 1170,-244.719 1171.12,-251.63"/>
</g>
<!-- db/seedDb&#45;&gt;models/userRating -->
<g id="edge40" class="edge"><title>db/seedDb&#45;&gt;models/userRating</title>
<path fill="none" stroke="#757575" d="M872.413,-301.039C970.778,-293.643 1183.25,-276.257 1361.43,-252 1369.32,-250.926 1377.55,-249.68 1385.73,-248.361"/>
<polygon fill="#757575" stroke="#757575" points="1386.37,-251.803 1395.66,-246.721 1385.23,-244.897 1386.37,-251.803"/>
</g>
<!-- db/seedDb&#45;&gt;models/userRole -->
<g id="edge41" class="edge"><title>db/seedDb&#45;&gt;models/userRole</title>
<path fill="none" stroke="#757575" d="M769.956,-295.92C706.593,-283.802 593.914,-262.251 520.967,-248.3"/>
<polygon fill="#757575" stroke="#757575" points="521.426,-244.824 510.946,-246.383 520.111,-251.699 521.426,-244.824"/>
</g>
</g>
</svg>
