<?xml version="1.0" encoding="UTF-8" standalone="no"?>
<!DOCTYPE svg PUBLIC "-//W3C//DTD SVG 1.1//EN"
 "http://www.w3.org/Graphics/SVG/1.1/DTD/svg11.dtd">
<!-- Generated by graphviz version 2.38.0 (20140413.2041)
 -->
<!-- Title: G Pages: 1 -->
<svg width="3104pt" height="556pt"
 viewBox="0.00 0.00 3103.75 555.98" xmlns="http://www.w3.org/2000/svg" xmlns:xlink="http://www.w3.org/1999/xlink">
<g id="graph0" class="graph" transform="scale(1 1) rotate(0) translate(7.992 547.992)">
<title>G</title>
<polygon fill="#000000" stroke="none" points="-7.992,7.992 -7.992,-547.992 3095.76,-547.992 3095.76,7.992 -7.992,7.992"/>
<!-- app -->
<g id="node1" class="node"><title>app</title>
<ellipse fill="none" stroke="#c6c5fe" cx="1099.74" cy="-522" rx="27" ry="18"/>
<text text-anchor="middle" x="1099.74" y="-518.3" font-family="Arial" font-size="14.00" fill="#c6c5fe">app</text>
</g>
<!-- config -->
<g id="node2" class="node"><title>config</title>
<ellipse fill="none" stroke="#cfffac" cx="1234.74" cy="-18" rx="36.2938" ry="18"/>
<text text-anchor="middle" x="1234.74" y="-14.3" font-family="Arial" font-size="14.00" fill="#cfffac">config</text>
</g>
<!-- app&#45;&gt;config -->
<g id="edge1" class="edge"><title>app&#45;&gt;config</title>
<path fill="none" stroke="#757575" d="M1126.96,-520.732C1361,-518.376 3026.69,-500.475 3065.74,-468 3096.84,-442.138 3084.74,-419.447 3084.74,-379 3084.74,-379 3084.74,-379 3084.74,-161 3084.74,-86.5174 3014,-93.6866 2942.74,-72 2780.03,-22.4783 1538.27,-19.1494 1281.22,-18.9934"/>
<polygon fill="#757575" stroke="#757575" points="1281.11,-15.4934 1271.11,-18.9886 1281.11,-22.4934 1281.11,-15.4934"/>
</g>
<!-- config/db -->
<g id="node3" class="node"><title>config/db</title>
<ellipse fill="none" stroke="#c6c5fe" cx="1187.74" cy="-162" rx="49.2915" ry="18"/>
<text text-anchor="middle" x="1187.74" y="-158.3" font-family="Arial" font-size="14.00" fill="#c6c5fe">config/db</text>
</g>
<!-- app&#45;&gt;config/db -->
<g id="edge2" class="edge"><title>app&#45;&gt;config/db</title>
<path fill="none" stroke="#757575" d="M1126.95,-521.136C1332.5,-521.888 2636.27,-521.667 2749.74,-396 2813.35,-325.561 2804.83,-301.353 2640.74,-216 2578.04,-183.382 1512.54,-167.267 1247.21,-163.748"/>
<polygon fill="#757575" stroke="#757575" points="1247.06,-160.246 1237.01,-163.614 1246.96,-167.245 1247.06,-160.246"/>
</g>
<!-- config/passport -->
<g id="node4" class="node"><title>config/passport</title>
<ellipse fill="none" stroke="#c6c5fe" cx="74.7434" cy="-378" rx="74.9875" ry="18"/>
<text text-anchor="middle" x="74.7434" y="-374.3" font-family="Arial" font-size="14.00" fill="#c6c5fe">config/passport</text>
</g>
<!-- app&#45;&gt;config/passport -->
<g id="edge3" class="edge"><title>app&#45;&gt;config/passport</title>
<path fill="none" stroke="#757575" d="M1072.6,-521.412C974.505,-522.408 629.441,-521.64 351.743,-468 268.231,-451.869 174.735,-418.452 120.522,-397.469"/>
<polygon fill="#757575" stroke="#757575" points="121.781,-394.203 111.192,-393.83 119.237,-400.724 121.781,-394.203"/>
</g>
<!-- logger/logger -->
<g id="node5" class="node"><title>logger/logger</title>
<ellipse fill="none" stroke="#c6c5fe" cx="1140.74" cy="-90" rx="65.7887" ry="18"/>
<text text-anchor="middle" x="1140.74" y="-86.3" font-family="Arial" font-size="14.00" fill="#c6c5fe">logger/logger</text>
</g>
<!-- app&#45;&gt;logger/logger -->
<g id="edge4" class="edge"><title>app&#45;&gt;logger/logger</title>
<path fill="none" stroke="#757575" d="M1126.72,-520.586C1316.18,-517.608 2443.9,-498.686 2592.74,-468 2679.16,-450.185 2723.04,-465.221 2777.74,-396 2797.78,-370.653 2785.52,-356.23 2787.74,-324 2788.85,-308.038 2795.91,-301.758 2787.74,-288 2700.41,-140.882 2599.21,-173.852 2430.74,-144 2195.21,-102.263 1455.74,-93.2801 1216.34,-91.4468"/>
<polygon fill="#757575" stroke="#757575" points="1216.36,-87.947 1206.34,-91.3722 1216.31,-94.9468 1216.36,-87.947"/>
</g>
<!-- package -->
<g id="node6" class="node"><title>package</title>
<ellipse fill="none" stroke="#cfffac" cx="2860.74" cy="-90" rx="46.2923" ry="18"/>
<text text-anchor="middle" x="2860.74" y="-86.3" font-family="Arial" font-size="14.00" fill="#cfffac">package</text>
</g>
<!-- app&#45;&gt;package -->
<g id="edge5" class="edge"><title>app&#45;&gt;package</title>
<path fill="none" stroke="#757575" d="M1126.73,-520.669C1322.6,-518.194 2522.96,-501.722 2680.74,-468 2783.08,-446.127 2898.74,-483.652 2898.74,-379 2898.74,-379 2898.74,-379 2898.74,-233 2898.74,-191.633 2883.51,-145.722 2872.33,-117.605"/>
<polygon fill="#757575" stroke="#757575" points="2875.46,-116.019 2868.43,-108.093 2868.99,-118.673 2875.46,-116.019"/>
</g>
<!-- routes/accounts -->
<g id="node7" class="node"><title>routes/accounts</title>
<ellipse fill="none" stroke="#c6c5fe" cx="243.743" cy="-378" rx="76.0865" ry="18"/>
<text text-anchor="middle" x="243.743" y="-374.3" font-family="Arial" font-size="14.00" fill="#c6c5fe">routes/accounts</text>
</g>
<!-- app&#45;&gt;routes/accounts -->
<g id="edge6" class="edge"><title>app&#45;&gt;routes/accounts</title>
<path fill="none" stroke="#757575" d="M1072.59,-519.905C965.953,-515.426 575.751,-497.341 455.743,-468 392.297,-452.488 323.348,-420.446 281.85,-399.343"/>
<polygon fill="#757575" stroke="#757575" points="283.414,-396.211 272.92,-394.754 280.215,-402.437 283.414,-396.211"/>
</g>
<!-- routes/admin -->
<g id="node8" class="node"><title>routes/admin</title>
<ellipse fill="none" stroke="#c6c5fe" cx="1099.74" cy="-450" rx="63.8893" ry="18"/>
<text text-anchor="middle" x="1099.74" y="-446.3" font-family="Arial" font-size="14.00" fill="#c6c5fe">routes/admin</text>
</g>
<!-- app&#45;&gt;routes/admin -->
<g id="edge7" class="edge"><title>app&#45;&gt;routes/admin</title>
<path fill="none" stroke="#757575" d="M1099.74,-503.697C1099.74,-495.983 1099.74,-486.712 1099.74,-478.112"/>
<polygon fill="#757575" stroke="#757575" points="1103.24,-478.104 1099.74,-468.104 1096.24,-478.104 1103.24,-478.104"/>
</g>
<!-- routes/book -->
<g id="node9" class="node"><title>routes/book</title>
<ellipse fill="none" stroke="#c6c5fe" cx="814.743" cy="-378" rx="59.5901" ry="18"/>
<text text-anchor="middle" x="814.743" y="-374.3" font-family="Arial" font-size="14.00" fill="#c6c5fe">routes/book</text>
</g>
<!-- app&#45;&gt;routes/book -->
<g id="edge8" class="edge"><title>app&#45;&gt;routes/book</title>
<path fill="none" stroke="#757575" d="M1078.79,-510.558C1031.32,-486.909 914.987,-428.946 853.806,-398.463"/>
<polygon fill="#757575" stroke="#757575" points="854.991,-395.143 844.48,-393.816 851.869,-401.408 854.991,-395.143"/>
</g>
<!-- routes/errors -->
<g id="node10" class="node"><title>routes/errors</title>
<ellipse fill="none" stroke="#c6c5fe" cx="401.743" cy="-378" rx="63.8893" ry="18"/>
<text text-anchor="middle" x="401.743" y="-374.3" font-family="Arial" font-size="14.00" fill="#c6c5fe">routes/errors</text>
</g>
<!-- app&#45;&gt;routes/errors -->
<g id="edge9" class="edge"><title>app&#45;&gt;routes/errors</title>
<path fill="none" stroke="#757575" d="M1072.58,-520.519C971.969,-518.433 620.981,-508.355 517.743,-468 480.946,-453.616 446.013,-423.823 424.28,-402.675"/>
<polygon fill="#757575" stroke="#757575" points="426.72,-400.166 417.162,-395.595 421.784,-405.129 426.72,-400.166"/>
</g>
<!-- routes/explore -->
<g id="node11" class="node"><title>routes/explore</title>
<ellipse fill="none" stroke="#c6c5fe" cx="667.743" cy="-378" rx="69.5877" ry="18"/>
<text text-anchor="middle" x="667.743" y="-374.3" font-family="Arial" font-size="14.00" fill="#c6c5fe">routes/explore</text>
</g>
<!-- app&#45;&gt;routes/explore -->
<g id="edge10" class="edge"><title>app&#45;&gt;routes/explore</title>
<path fill="none" stroke="#757575" d="M1075.16,-514.209C1040.39,-504.501 974.914,-485.851 919.743,-468 848.146,-444.834 766.121,-415.299 715.619,-396.763"/>
<polygon fill="#757575" stroke="#757575" points="716.545,-393.374 705.952,-393.208 714.129,-399.944 716.545,-393.374"/>
</g>
<!-- routes/index -->
<g id="node12" class="node"><title>routes/index</title>
<ellipse fill="none" stroke="#c6c5fe" cx="587.743" cy="-450" rx="61.1893" ry="18"/>
<text text-anchor="middle" x="587.743" y="-446.3" font-family="Arial" font-size="14.00" fill="#c6c5fe">routes/index</text>
</g>
<!-- app&#45;&gt;routes/index -->
<g id="edge11" class="edge"><title>app&#45;&gt;routes/index</title>
<path fill="none" stroke="#757575" d="M1073.29,-517.384C995.375,-506.731 765.086,-475.246 651.945,-459.778"/>
<polygon fill="#757575" stroke="#757575" points="652.411,-456.309 642.029,-458.422 651.463,-463.244 652.411,-456.309"/>
</g>
<!-- routes/teapot -->
<g id="node13" class="node"><title>routes/teapot</title>
<ellipse fill="none" stroke="#cfffac" cx="2991.74" cy="-450" rx="64.9885" ry="18"/>
<text text-anchor="middle" x="2991.74" y="-446.3" font-family="Arial" font-size="14.00" fill="#cfffac">routes/teapot</text>
</g>
<!-- app&#45;&gt;routes/teapot -->
<g id="edge12" class="edge"><title>app&#45;&gt;routes/teapot</title>
<path fill="none" stroke="#757575" d="M1126.93,-520.887C1324.73,-519.964 2545.43,-512.51 2912.74,-468 2919.92,-467.13 2927.42,-465.92 2934.81,-464.544"/>
<polygon fill="#757575" stroke="#757575" points="2935.64,-467.947 2944.78,-462.579 2934.29,-461.079 2935.64,-467.947"/>
</g>
<!-- services/siteBuilder -->
<g id="node14" class="node"><title>services/siteBuilder</title>
<ellipse fill="none" stroke="#c6c5fe" cx="2649.74" cy="-378" rx="90.9839" ry="18"/>
<text text-anchor="middle" x="2649.74" y="-374.3" font-family="Arial" font-size="14.00" fill="#c6c5fe">services/siteBuilder</text>
</g>
<!-- app&#45;&gt;services/siteBuilder -->
<g id="edge13" class="edge"><title>app&#45;&gt;services/siteBuilder</title>
<path fill="none" stroke="#757575" d="M1126.89,-519.406C1272.38,-510.706 1974.37,-466.744 2544.74,-396 2554.13,-394.836 2563.96,-393.457 2573.68,-391.997"/>
<polygon fill="#757575" stroke="#757575" points="2574.4,-395.427 2583.76,-390.45 2573.34,-388.508 2574.4,-395.427"/>
</g>
<!-- config/db&#45;&gt;config -->
<g id="edge14" class="edge"><title>config/db&#45;&gt;config</title>
<path fill="none" stroke="#757575" d="M1198.06,-144.363C1203.98,-134.185 1211.13,-120.717 1215.74,-108 1223.05,-87.8582 1227.95,-64.079 1230.94,-46.1694"/>
<polygon fill="#757575" stroke="#757575" points="1234.42,-46.541 1232.52,-36.1185 1227.51,-45.4531 1234.42,-46.541"/>
</g>
<!-- config/db&#45;&gt;logger/logger -->
<g id="edge15" class="edge"><title>config/db&#45;&gt;logger/logger</title>
<path fill="none" stroke="#757575" d="M1176.61,-144.411C1171.01,-136.077 1164.11,-125.797 1157.86,-116.488"/>
<polygon fill="#757575" stroke="#757575" points="1160.61,-114.307 1152.13,-107.956 1154.8,-118.209 1160.61,-114.307"/>
</g>
<!-- config/db&#45;&gt;package -->
<g id="edge16" class="edge"><title>config/db&#45;&gt;package</title>
<path fill="none" stroke="#757575" d="M1236.46,-158.962C1478.18,-148.848 2547.5,-104.107 2804.88,-93.3374"/>
<polygon fill="#757575" stroke="#757575" points="2805.27,-96.8244 2815.11,-92.9093 2804.97,-89.8305 2805.27,-96.8244"/>
</g>
<!-- config/passport&#45;&gt;logger/logger -->
<g id="edge17" class="edge"><title>config/passport&#45;&gt;logger/logger</title>
<path fill="none" stroke="#757575" d="M85.6774,-360.014C115.757,-314.993 204.851,-192.725 314.743,-144 382.302,-114.045 874.659,-98.0085 1065.47,-92.8641"/>
<polygon fill="#757575" stroke="#757575" points="1065.79,-96.357 1075.7,-92.5912 1065.61,-89.3595 1065.79,-96.357"/>
</g>
<!-- models/user -->
<g id="node15" class="node"><title>models/user</title>
<ellipse fill="none" stroke="#c6c5fe" cx="401.743" cy="-234" rx="61.99" ry="18"/>
<text text-anchor="middle" x="401.743" y="-230.3" font-family="Arial" font-size="14.00" fill="#c6c5fe">models/user</text>
</g>
<!-- config/passport&#45;&gt;models/user -->
<g id="edge18" class="edge"><title>config/passport&#45;&gt;models/user</title>
<path fill="none" stroke="#757575" d="M109.429,-361.938C169.901,-335.678 294.4,-281.614 359.686,-253.263"/>
<polygon fill="#757575" stroke="#757575" points="361.096,-256.467 368.874,-249.273 358.308,-250.046 361.096,-256.467"/>
</g>
<!-- services/userHelper -->
<g id="node16" class="node"><title>services/userHelper</title>
<ellipse fill="none" stroke="#c6c5fe" cx="432.743" cy="-306" rx="92.8835" ry="18"/>
<text text-anchor="middle" x="432.743" y="-302.3" font-family="Arial" font-size="14.00" fill="#c6c5fe">services/userHelper</text>
</g>
<!-- config/passport&#45;&gt;services/userHelper -->
<g id="edge19" class="edge"><title>config/passport&#45;&gt;services/userHelper</title>
<path fill="none" stroke="#757575" d="M129.855,-365.776C139.481,-363.836 149.402,-361.849 158.743,-360 226.531,-346.585 303.832,-331.667 359.006,-321.085"/>
<polygon fill="#757575" stroke="#757575" points="359.881,-324.481 369.044,-319.161 358.563,-317.606 359.881,-324.481"/>
</g>
<!-- logger/logger&#45;&gt;config -->
<g id="edge44" class="edge"><title>logger/logger&#45;&gt;config</title>
<path fill="none" stroke="#757575" d="M1162.55,-72.7646C1175.75,-62.9314 1192.72,-50.2926 1206.89,-39.74"/>
<polygon fill="#757575" stroke="#757575" points="1209.37,-42.2627 1215.3,-33.4828 1205.18,-36.6484 1209.37,-42.2627"/>
</g>
<!-- routes/accounts&#45;&gt;config/db -->
<g id="edge56" class="edge"><title>routes/accounts&#45;&gt;config/db</title>
<path fill="none" stroke="#757575" d="M244.818,-359.789C247.963,-325.799 260.222,-250.38 307.743,-216 373.882,-168.152 940.944,-163.245 1128.09,-162.939"/>
<polygon fill="#757575" stroke="#757575" points="1128.3,-166.439 1138.29,-162.926 1128.29,-159.439 1128.3,-166.439"/>
</g>
<!-- routes/accounts&#45;&gt;logger/logger -->
<g id="edge57" class="edge"><title>routes/accounts&#45;&gt;logger/logger</title>
<path fill="none" stroke="#757575" d="M244.426,-359.819C246.46,-328.429 254.551,-260.913 286.743,-216 320.351,-169.112 340.157,-162.664 394.743,-144 517.187,-102.133 901.218,-93.3319 1065.25,-91.4868"/>
<polygon fill="#757575" stroke="#757575" points="1065.3,-94.9866 1075.26,-91.3799 1065.22,-87.987 1065.3,-94.9866"/>
</g>
<!-- routes/accounts&#45;&gt;models/user -->
<g id="edge58" class="edge"><title>routes/accounts&#45;&gt;models/user</title>
<path fill="none" stroke="#757575" d="M258.738,-360.159C275.529,-341.667 303.916,-311.482 330.743,-288 343.157,-277.134 357.631,-266.071 370.26,-256.882"/>
<polygon fill="#757575" stroke="#757575" points="372.582,-259.523 378.661,-250.845 368.497,-253.839 372.582,-259.523"/>
</g>
<!-- routes/accounts&#45;&gt;services/userHelper -->
<g id="edge59" class="edge"><title>routes/accounts&#45;&gt;services/userHelper</title>
<path fill="none" stroke="#757575" d="M282.904,-362.496C311.712,-351.826 351.115,-337.233 382.283,-325.689"/>
<polygon fill="#757575" stroke="#757575" points="383.509,-328.967 391.671,-322.212 381.078,-322.403 383.509,-328.967"/>
</g>
<!-- routes/admin&#45;&gt;config -->
<g id="edge60" class="edge"><title>routes/admin&#45;&gt;config</title>
<path fill="none" stroke="#757575" d="M1035.93,-449.845C915.34,-450.254 659.707,-445.098 588.743,-396 544.611,-365.466 577.759,-320.088 534.743,-288 457.676,-230.511 277.858,-296.297 330.743,-216 419.884,-80.6563 508.697,-112.004 665.743,-72 854.978,-23.7963 1089.58,-18.3857 1187.93,-18.4598"/>
<polygon fill="#757575" stroke="#757575" points="1188.12,-21.9602 1198.13,-18.4879 1188.14,-14.9602 1188.12,-21.9602"/>
</g>
<!-- routes/admin&#45;&gt;config/db -->
<g id="edge61" class="edge"><title>routes/admin&#45;&gt;config/db</title>
<path fill="none" stroke="#757575" d="M1101.34,-431.88C1102.2,-411.678 1100.21,-378.502 1080.74,-360 1044.2,-325.27 905.831,-335.501 856.743,-324 843.604,-320.922 632.748,-262.865 624.743,-252 615.253,-239.118 613.973,-227.832 624.743,-216 641.567,-197.518 987.921,-174.9 1128.86,-166.424"/>
<polygon fill="#757575" stroke="#757575" points="1129.27,-169.905 1139.05,-165.814 1128.86,-162.918 1129.27,-169.905"/>
</g>
<!-- routes/admin&#45;&gt;services/userHelper -->
<g id="edge66" class="edge"><title>routes/admin&#45;&gt;services/userHelper</title>
<path fill="none" stroke="#757575" d="M1036.3,-447.585C911.942,-444.038 640.855,-432.273 555.743,-396 533.126,-386.361 533.404,-374.761 513.743,-360 499.275,-349.137 482.651,-338.038 468.243,-328.822"/>
<polygon fill="#757575" stroke="#757575" points="469.918,-325.74 459.597,-323.346 466.173,-331.654 469.918,-325.74"/>
</g>
<!-- db/clearDb -->
<g id="node17" class="node"><title>db/clearDb</title>
<ellipse fill="none" stroke="#c6c5fe" cx="1393.74" cy="-378" rx="55.7903" ry="18"/>
<text text-anchor="middle" x="1393.74" y="-374.3" font-family="Arial" font-size="14.00" fill="#c6c5fe">db/clearDb</text>
</g>
<!-- routes/admin&#45;&gt;db/clearDb -->
<g id="edge62" class="edge"><title>routes/admin&#45;&gt;db/clearDb</title>
<path fill="none" stroke="#757575" d="M1146.98,-437.753C1199.7,-425.201 1284.83,-404.932 1340.04,-391.787"/>
<polygon fill="#757575" stroke="#757575" points="1341.07,-395.14 1349.98,-389.419 1339.45,-388.33 1341.07,-395.14"/>
</g>
<!-- models/systemDefaults -->
<g id="node20" class="node"><title>models/systemDefaults</title>
<ellipse fill="none" stroke="#c6c5fe" cx="2496.74" cy="-234" rx="107.781" ry="18"/>
<text text-anchor="middle" x="2496.74" y="-230.3" font-family="Arial" font-size="14.00" fill="#c6c5fe">models/systemDefaults</text>
</g>
<!-- routes/admin&#45;&gt;models/systemDefaults -->
<g id="edge64" class="edge"><title>routes/admin&#45;&gt;models/systemDefaults</title>
<path fill="none" stroke="#757575" d="M1156.65,-441.848C1234.91,-431.942 1380.09,-413.307 1503.74,-396 1719.12,-365.855 1773.06,-358.732 1987.74,-324 2139.71,-299.414 2316.66,-267.798 2416.81,-249.624"/>
<polygon fill="#757575" stroke="#757575" points="2417.64,-253.031 2426.85,-247.8 2416.39,-246.143 2417.64,-253.031"/>
</g>
<!-- db/seedDb -->
<g id="node27" class="node"><title>db/seedDb</title>
<ellipse fill="none" stroke="#c6c5fe" cx="1581.74" cy="-306" rx="57.3905" ry="18"/>
<text text-anchor="middle" x="1581.74" y="-302.3" font-family="Arial" font-size="14.00" fill="#c6c5fe">db/seedDb</text>
</g>
<!-- routes/admin&#45;&gt;db/seedDb -->
<g id="edge63" class="edge"><title>routes/admin&#45;&gt;db/seedDb</title>
<path fill="none" stroke="#757575" d="M1163.42,-448.649C1237.1,-446.222 1360.85,-435.836 1458.74,-396 1496.74,-380.536 1534,-350.976 1557.38,-330.177"/>
<polygon fill="#757575" stroke="#757575" points="1559.99,-332.534 1565.04,-323.224 1555.29,-327.349 1559.99,-332.534"/>
</g>
<!-- services/statHelper -->
<g id="node29" class="node"><title>services/statHelper</title>
<ellipse fill="none" stroke="#cfffac" cx="981.743" cy="-378" rx="89.8845" ry="18"/>
<text text-anchor="middle" x="981.743" y="-374.3" font-family="Arial" font-size="14.00" fill="#cfffac">services/statHelper</text>
</g>
<!-- routes/admin&#45;&gt;services/statHelper -->
<g id="edge65" class="edge"><title>routes/admin&#45;&gt;services/statHelper</title>
<path fill="none" stroke="#757575" d="M1073.56,-433.465C1057.25,-423.792 1036.04,-411.212 1018.12,-400.579"/>
<polygon fill="#757575" stroke="#757575" points="1019.47,-397.313 1009.09,-395.222 1015.9,-403.334 1019.47,-397.313"/>
</g>
<!-- routes/book&#45;&gt;config/db -->
<g id="edge67" class="edge"><title>routes/book&#45;&gt;config/db</title>
<path fill="none" stroke="#757575" d="M793.945,-361.073C768.466,-342.045 723.525,-310.025 681.743,-288 643.633,-267.911 615.896,-287.674 591.743,-252 582.773,-238.751 580.942,-227.804 591.743,-216 609.741,-196.33 982.257,-174.119 1129.04,-166.096"/>
<polygon fill="#757575" stroke="#757575" points="1129.41,-169.581 1139.21,-165.543 1129.03,-162.591 1129.41,-169.581"/>
</g>
<!-- routes/book&#45;&gt;logger/logger -->
<g id="edge68" class="edge"><title>routes/book&#45;&gt;logger/logger</title>
<path fill="none" stroke="#757575" d="M774.505,-364.632C746.509,-355.268 708.787,-341.114 677.743,-324 621.242,-292.852 540.396,-266.346 580.743,-216 641.062,-140.733 930.573,-107.81 1068.01,-96.2381"/>
<polygon fill="#757575" stroke="#757575" points="1068.36,-99.7213 1078.04,-95.4091 1067.78,-92.7451 1068.36,-99.7213"/>
</g>
<!-- routes/book&#45;&gt;services/userHelper -->
<g id="edge72" class="edge"><title>routes/book&#45;&gt;services/userHelper</title>
<path fill="none" stroke="#757575" d="M771.328,-365.612C763.185,-363.628 754.724,-361.668 746.743,-360 668.28,-343.596 577.97,-328.772 514.403,-319.001"/>
<polygon fill="#757575" stroke="#757575" points="514.85,-315.529 504.436,-317.476 513.792,-322.448 514.85,-315.529"/>
</g>
<!-- models/book -->
<g id="node18" class="node"><title>models/book</title>
<ellipse fill="none" stroke="#c6c5fe" cx="697.743" cy="-234" rx="64.189" ry="18"/>
<text text-anchor="middle" x="697.743" y="-230.3" font-family="Arial" font-size="14.00" fill="#c6c5fe">models/book</text>
</g>
<!-- routes/book&#45;&gt;models/book -->
<g id="edge69" class="edge"><title>routes/book&#45;&gt;models/book</title>
<path fill="none" stroke="#757575" d="M805.724,-359.972C795.427,-341.317 777.442,-310.99 757.743,-288 748.447,-277.151 736.942,-266.468 726.501,-257.569"/>
<polygon fill="#757575" stroke="#757575" points="728.703,-254.847 718.779,-251.137 724.223,-260.226 728.703,-254.847"/>
</g>
<!-- models/transaction -->
<g id="node22" class="node"><title>models/transaction</title>
<ellipse fill="none" stroke="#c6c5fe" cx="905.743" cy="-234" rx="88.2844" ry="18"/>
<text text-anchor="middle" x="905.743" y="-230.3" font-family="Arial" font-size="14.00" fill="#c6c5fe">models/transaction</text>
</g>
<!-- routes/book&#45;&gt;models/transaction -->
<g id="edge70" class="edge"><title>routes/book&#45;&gt;models/transaction</title>
<path fill="none" stroke="#757575" d="M825.54,-360.153C841.258,-335.625 870.581,-289.869 889.082,-260.999"/>
<polygon fill="#757575" stroke="#757575" points="892.229,-262.576 894.677,-252.268 886.335,-258.799 892.229,-262.576"/>
</g>
<!-- services/dbHelper -->
<g id="node26" class="node"><title>services/dbHelper</title>
<ellipse fill="none" stroke="#c6c5fe" cx="1075.74" cy="-306" rx="85.5853" ry="18"/>
<text text-anchor="middle" x="1075.74" y="-302.3" font-family="Arial" font-size="14.00" fill="#c6c5fe">services/dbHelper</text>
</g>
<!-- routes/book&#45;&gt;services/dbHelper -->
<g id="edge71" class="edge"><title>routes/book&#45;&gt;services/dbHelper</title>
<path fill="none" stroke="#757575" d="M857.842,-365.441C900.782,-353.925 967.086,-336.142 1015.28,-323.216"/>
<polygon fill="#757575" stroke="#757575" points="1016.22,-326.588 1024.97,-320.617 1014.4,-319.827 1016.22,-326.588"/>
</g>
<!-- routes/errors&#45;&gt;config/db -->
<g id="edge73" class="edge"><title>routes/errors&#45;&gt;config/db</title>
<path fill="none" stroke="#757575" d="M370.294,-362.209C355.404,-353.388 339.086,-340.638 330.743,-324 309.229,-281.092 297.866,-250.973 330.743,-216 358.064,-186.938 938.903,-169.421 1128.48,-164.461"/>
<polygon fill="#757575" stroke="#757575" points="1128.63,-167.959 1138.54,-164.2 1128.45,-160.961 1128.63,-167.959"/>
</g>
<!-- routes/errors&#45;&gt;logger/logger -->
<g id="edge74" class="edge"><title>routes/errors&#45;&gt;logger/logger</title>
<path fill="none" stroke="#757575" d="M362.113,-363.754C343.545,-355.391 323.062,-342.584 311.743,-324 286.758,-282.977 277.664,-253.448 307.743,-216 355.286,-156.811 873.809,-111.397 1067.94,-96.3566"/>
<polygon fill="#757575" stroke="#757575" points="1068.34,-99.836 1078.04,-95.5785 1067.8,-92.8567 1068.34,-99.836"/>
</g>
<!-- routes/errors&#45;&gt;services/userHelper -->
<g id="edge75" class="edge"><title>routes/errors&#45;&gt;services/userHelper</title>
<path fill="none" stroke="#757575" d="M409.248,-360.055C412.774,-352.091 417.061,-342.411 421.003,-333.51"/>
<polygon fill="#757575" stroke="#757575" points="424.244,-334.836 425.093,-324.275 417.843,-332.002 424.244,-334.836"/>
</g>
<!-- routes/explore&#45;&gt;config/db -->
<g id="edge76" class="edge"><title>routes/explore&#45;&gt;config/db</title>
<path fill="none" stroke="#757575" d="M647.003,-360.761C609.801,-329.758 539.313,-261.205 580.743,-216 599.12,-195.949 979.824,-173.904 1128.75,-166.013"/>
<polygon fill="#757575" stroke="#757575" points="1129.27,-169.491 1139.07,-165.47 1128.9,-162.501 1129.27,-169.491"/>
</g>
<!-- routes/explore&#45;&gt;services/userHelper -->
<g id="edge79" class="edge"><title>routes/explore&#45;&gt;services/userHelper</title>
<path fill="none" stroke="#757575" d="M623.817,-363.916C586.306,-352.742 532.056,-336.582 490.937,-324.334"/>
<polygon fill="#757575" stroke="#757575" points="491.9,-320.969 481.317,-321.469 489.902,-327.678 491.9,-320.969"/>
</g>
<!-- routes/explore&#45;&gt;models/book -->
<g id="edge77" class="edge"><title>routes/explore&#45;&gt;models/book</title>
<path fill="none" stroke="#757575" d="M672.634,-359.899C675.498,-349.558 679.067,-336.079 681.743,-324 686.3,-303.437 690.475,-279.985 693.417,-262.318"/>
<polygon fill="#757575" stroke="#757575" points="696.921,-262.577 695.081,-252.143 690.012,-261.447 696.921,-262.577"/>
</g>
<!-- routes/explore&#45;&gt;services/dbHelper -->
<g id="edge78" class="edge"><title>routes/explore&#45;&gt;services/dbHelper</title>
<path fill="none" stroke="#757575" d="M718.429,-365.527C727.506,-363.594 736.892,-361.674 745.743,-360 831.429,-343.795 930.238,-328.351 997.233,-318.359"/>
<polygon fill="#757575" stroke="#757575" points="997.916,-321.796 1007.29,-316.864 996.887,-314.872 997.916,-321.796"/>
</g>
<!-- routes/index&#45;&gt;services/userHelper -->
<g id="edge80" class="edge"><title>routes/index&#45;&gt;services/userHelper</title>
<path fill="none" stroke="#757575" d="M564.954,-433.167C550.902,-423.064 532.761,-409.391 517.743,-396 494.823,-375.561 470.846,-350.018 454.223,-331.545"/>
<polygon fill="#757575" stroke="#757575" points="456.624,-328.979 447.355,-323.848 451.402,-333.64 456.624,-328.979"/>
</g>
<!-- services/siteBuilder&#45;&gt;config -->
<g id="edge93" class="edge"><title>services/siteBuilder&#45;&gt;config</title>
<path fill="none" stroke="#757575" d="M2693.18,-362.163C2715.61,-353.227 2742.62,-340.388 2763.74,-324 2867.09,-243.832 3006.76,-165.933 2915.74,-72 2886.5,-41.8176 1549.46,-23.0474 1281.29,-19.5827"/>
<polygon fill="#757575" stroke="#757575" points="1281.16,-16.0809 1271.12,-19.4521 1281.07,-23.0803 1281.16,-16.0809"/>
</g>
<!-- services/siteBuilder&#45;&gt;config/db -->
<g id="edge94" class="edge"><title>services/siteBuilder&#45;&gt;config/db</title>
<path fill="none" stroke="#757575" d="M2651.92,-359.758C2655.1,-326.056 2656.57,-251.631 2613.74,-216 2560.48,-171.68 1510.88,-164.346 1247.36,-163.201"/>
<polygon fill="#757575" stroke="#757575" points="1247.24,-159.701 1237.22,-163.159 1247.21,-166.701 1247.24,-159.701"/>
</g>
<!-- services/siteBuilder&#45;&gt;logger/logger -->
<g id="edge95" class="edge"><title>services/siteBuilder&#45;&gt;logger/logger</title>
<path fill="none" stroke="#757575" d="M2653.58,-359.905C2659.77,-327.44 2667.89,-256.496 2631.74,-216 2607.84,-189.215 2352.32,-148.828 2316.74,-144 2102.71,-114.956 1440.37,-97.7411 1215.97,-92.6222"/>
<polygon fill="#757575" stroke="#757575" points="1216.02,-89.1224 1205.94,-92.3948 1215.86,-96.1206 1216.02,-89.1224"/>
</g>
<!-- services/siteBuilder&#45;&gt;package -->
<g id="edge97" class="edge"><title>services/siteBuilder&#45;&gt;package</title>
<path fill="none" stroke="#757575" d="M2677.49,-360.677C2710.93,-339.633 2766.62,-299.977 2798.74,-252 2827.31,-209.33 2845.42,-151.603 2854.27,-118.124"/>
<polygon fill="#757575" stroke="#757575" points="2857.73,-118.712 2856.82,-108.157 2850.95,-116.978 2857.73,-118.712"/>
</g>
<!-- services/siteBuilder&#45;&gt;models/systemDefaults -->
<g id="edge96" class="edge"><title>services/siteBuilder&#45;&gt;models/systemDefaults</title>
<path fill="none" stroke="#757575" d="M2631.59,-360.153C2604.45,-334.959 2553.17,-287.367 2522.26,-258.685"/>
<polygon fill="#757575" stroke="#757575" points="2524.58,-256.062 2514.87,-251.825 2519.82,-261.193 2524.58,-256.062"/>
</g>
<!-- services/siteBuilder&#45;&gt;services/dbHelper -->
<g id="edge98" class="edge"><title>services/siteBuilder&#45;&gt;services/dbHelper</title>
<path fill="none" stroke="#757575" d="M2562.03,-373.099C2288.15,-360.919 1450.41,-323.662 1169.03,-311.149"/>
<polygon fill="#757575" stroke="#757575" points="1169,-307.644 1158.86,-310.696 1168.69,-314.637 1169,-307.644"/>
</g>
<!-- models/user&#45;&gt;config -->
<g id="edge51" class="edge"><title>models/user&#45;&gt;config</title>
<path fill="none" stroke="#757575" d="M429.352,-217.756C489.978,-185.048 640.164,-108.173 775.743,-72 922.91,-32.735 1104.28,-22.5594 1188.15,-19.9224"/>
<polygon fill="#757575" stroke="#757575" points="1188.48,-23.4146 1198.37,-19.6237 1188.27,-16.4176 1188.48,-23.4146"/>
</g>
<!-- models/user&#45;&gt;config/db -->
<g id="edge52" class="edge"><title>models/user&#45;&gt;config/db</title>
<path fill="none" stroke="#757575" d="M454.141,-224.409C473.464,-221.446 495.563,-218.298 515.743,-216 741.768,-190.265 1011.99,-173.055 1128.98,-166.261"/>
<polygon fill="#757575" stroke="#757575" points="1129.36,-169.744 1139.14,-165.674 1128.96,-162.756 1129.36,-169.744"/>
</g>
<!-- services/userHelper&#45;&gt;models/user -->
<g id="edge99" class="edge"><title>services/userHelper&#45;&gt;models/user</title>
<path fill="none" stroke="#757575" d="M425.239,-288.055C421.712,-280.091 417.425,-270.411 413.483,-261.51"/>
<polygon fill="#757575" stroke="#757575" points="416.643,-260.002 409.394,-252.275 410.243,-262.836 416.643,-260.002"/>
</g>
<!-- db/clearDb&#45;&gt;config -->
<g id="edge20" class="edge"><title>db/clearDb&#45;&gt;config</title>
<path fill="none" stroke="#757575" d="M1449.19,-375.617C1677.33,-369.364 2535.19,-340.102 2613.74,-252 2624.39,-240.057 2623.55,-228.642 2613.74,-216 2455.96,-12.6066 2306.95,-112.498 2052.74,-72 1761.92,-25.6696 1406.78,-19.6097 1281.32,-18.9887"/>
<polygon fill="#757575" stroke="#757575" points="1281.31,-15.4887 1271.3,-18.9484 1281.28,-22.4886 1281.31,-15.4887"/>
</g>
<!-- db/clearDb&#45;&gt;logger/logger -->
<g id="edge21" class="edge"><title>db/clearDb&#45;&gt;logger/logger</title>
<path fill="none" stroke="#757575" d="M1449.19,-375.617C1677.33,-369.364 2535.19,-340.102 2613.74,-252 2624.39,-240.057 2624.2,-228.114 2613.74,-216 2578.08,-174.668 2182.06,-149.47 2127.74,-144 1788.46,-109.834 1381.2,-96.7752 1215.93,-92.6416"/>
<polygon fill="#757575" stroke="#757575" points="1215.95,-89.1412 1205.87,-92.3935 1215.78,-96.139 1215.95,-89.1412"/>
</g>
<!-- db/clearDb&#45;&gt;models/user -->
<g id="edge27" class="edge"><title>db/clearDb&#45;&gt;models/user</title>
<path fill="none" stroke="#757575" d="M1339.4,-373.432C1241.66,-366.624 1029.91,-350.095 852.743,-324 709.913,-302.962 543.744,-267.216 458.538,-248.053"/>
<polygon fill="#757575" stroke="#757575" points="459.081,-244.588 448.556,-245.801 457.54,-251.416 459.081,-244.588"/>
</g>
<!-- db/clearDb&#45;&gt;models/book -->
<g id="edge22" class="edge"><title>db/clearDb&#45;&gt;models/book</title>
<path fill="none" stroke="#757575" d="M1338.18,-376.022C1251.1,-373.278 1077.84,-362.921 936.743,-324 899.157,-313.632 893.062,-302.183 856.743,-288 821.403,-274.199 780.815,-260.707 749.493,-250.79"/>
<polygon fill="#757575" stroke="#757575" points="750.257,-247.362 739.667,-247.7 748.157,-254.039 750.257,-247.362"/>
</g>
<!-- models/interest -->
<g id="node19" class="node"><title>models/interest</title>
<ellipse fill="none" stroke="#c6c5fe" cx="1978.74" cy="-234" rx="74.187" ry="18"/>
<text text-anchor="middle" x="1978.74" y="-230.3" font-family="Arial" font-size="14.00" fill="#c6c5fe">models/interest</text>
</g>
<!-- db/clearDb&#45;&gt;models/interest -->
<g id="edge23" class="edge"><title>db/clearDb&#45;&gt;models/interest</title>
<path fill="none" stroke="#757575" d="M1440.74,-368.027C1491.85,-358.073 1575.88,-341.144 1647.74,-324 1745.19,-300.752 1857.62,-269.59 1923.19,-250.977"/>
<polygon fill="#757575" stroke="#757575" points="1924.24,-254.315 1932.9,-248.213 1922.33,-247.583 1924.24,-254.315"/>
</g>
<!-- db/clearDb&#45;&gt;models/systemDefaults -->
<g id="edge24" class="edge"><title>db/clearDb&#45;&gt;models/systemDefaults</title>
<path fill="none" stroke="#757575" d="M1445.5,-371.09C1528.51,-361.555 1696.53,-342.02 1838.74,-324 2077.2,-293.786 2136.6,-284.586 2374.74,-252 2385.21,-250.568 2396.17,-249.056 2407.06,-247.548"/>
<polygon fill="#757575" stroke="#757575" points="2407.59,-251.008 2417.02,-246.167 2406.63,-244.074 2407.59,-251.008"/>
</g>
<!-- models/systemMessage -->
<g id="node21" class="node"><title>models/systemMessage</title>
<ellipse fill="none" stroke="#c6c5fe" cx="2182.74" cy="-234" rx="111.581" ry="18"/>
<text text-anchor="middle" x="2182.74" y="-230.3" font-family="Arial" font-size="14.00" fill="#c6c5fe">models/systemMessage</text>
</g>
<!-- db/clearDb&#45;&gt;models/systemMessage -->
<g id="edge25" class="edge"><title>db/clearDb&#45;&gt;models/systemMessage</title>
<path fill="none" stroke="#757575" d="M1443.52,-369.783C1509.36,-360.096 1628.98,-342.015 1730.74,-324 1863.77,-300.451 2018.04,-269.23 2107.6,-250.714"/>
<polygon fill="#757575" stroke="#757575" points="2108.31,-254.141 2117.39,-248.686 2106.89,-247.286 2108.31,-254.141"/>
</g>
<!-- db/clearDb&#45;&gt;models/transaction -->
<g id="edge26" class="edge"><title>db/clearDb&#45;&gt;models/transaction</title>
<path fill="none" stroke="#757575" d="M1338.34,-374.839C1240.38,-370.213 1041.2,-356.956 980.743,-324 954.162,-309.51 933.005,-281.495 920.028,-260.75"/>
<polygon fill="#757575" stroke="#757575" points="922.968,-258.849 914.813,-252.086 916.971,-262.458 922.968,-258.849"/>
</g>
<!-- models/userMessage -->
<g id="node23" class="node"><title>models/userMessage</title>
<ellipse fill="none" stroke="#c6c5fe" cx="1187.74" cy="-234" rx="100.182" ry="18"/>
<text text-anchor="middle" x="1187.74" y="-230.3" font-family="Arial" font-size="14.00" fill="#c6c5fe">models/userMessage</text>
</g>
<!-- db/clearDb&#45;&gt;models/userMessage -->
<g id="edge28" class="edge"><title>db/clearDb&#45;&gt;models/userMessage</title>
<path fill="none" stroke="#757575" d="M1370.91,-361.261C1334.33,-336.048 1262.46,-286.503 1220.44,-257.539"/>
<polygon fill="#757575" stroke="#757575" points="1222.17,-254.481 1211.95,-251.687 1218.2,-260.244 1222.17,-254.481"/>
</g>
<!-- models/userRating -->
<g id="node24" class="node"><title>models/userRating</title>
<ellipse fill="none" stroke="#c6c5fe" cx="1393.74" cy="-234" rx="88.2844" ry="18"/>
<text text-anchor="middle" x="1393.74" y="-230.3" font-family="Arial" font-size="14.00" fill="#c6c5fe">models/userRating</text>
</g>
<!-- db/clearDb&#45;&gt;models/userRating -->
<g id="edge29" class="edge"><title>db/clearDb&#45;&gt;models/userRating</title>
<path fill="none" stroke="#757575" d="M1393.74,-359.871C1393.74,-335.67 1393.74,-291.211 1393.74,-262.393"/>
<polygon fill="#757575" stroke="#757575" points="1397.24,-262.189 1393.74,-252.189 1390.24,-262.189 1397.24,-262.189"/>
</g>
<!-- models/userRole -->
<g id="node25" class="node"><title>models/userRole</title>
<ellipse fill="none" stroke="#c6c5fe" cx="1581.74" cy="-234" rx="81.4863" ry="18"/>
<text text-anchor="middle" x="1581.74" y="-230.3" font-family="Arial" font-size="14.00" fill="#c6c5fe">models/userRole</text>
</g>
<!-- db/clearDb&#45;&gt;models/userRole -->
<g id="edge30" class="edge"><title>db/clearDb&#45;&gt;models/userRole</title>
<path fill="none" stroke="#757575" d="M1414.58,-361.261C1447.91,-336.086 1513.36,-286.654 1551.73,-257.672"/>
<polygon fill="#757575" stroke="#757575" points="1554.07,-260.286 1559.94,-251.466 1549.85,-254.7 1554.07,-260.286"/>
</g>
<!-- db/clearDb&#45;&gt;services/dbHelper -->
<g id="edge31" class="edge"><title>db/clearDb&#45;&gt;services/dbHelper</title>
<path fill="none" stroke="#757575" d="M1348.86,-367.119C1295.18,-355.303 1204.82,-335.413 1142.84,-321.769"/>
<polygon fill="#757575" stroke="#757575" points="1143.28,-318.283 1132.76,-319.551 1141.77,-325.119 1143.28,-318.283"/>
</g>
<!-- models/book&#45;&gt;config/db -->
<g id="edge45" class="edge"><title>models/book&#45;&gt;config/db</title>
<path fill="none" stroke="#757575" d="M752.487,-224.471C770.408,-221.718 790.418,-218.684 808.743,-216 923.638,-199.169 1058.31,-180.616 1132.2,-170.537"/>
<polygon fill="#757575" stroke="#757575" points="1132.78,-173.991 1142.21,-169.172 1131.83,-167.055 1132.78,-173.991"/>
</g>
<!-- models/interest&#45;&gt;config/db -->
<g id="edge46" class="edge"><title>models/interest&#45;&gt;config/db</title>
<path fill="none" stroke="#757575" d="M1926.23,-221.193C1916.15,-219.226 1905.65,-217.38 1895.74,-216 1656.71,-182.712 1369.17,-169.34 1247.14,-164.892"/>
<polygon fill="#757575" stroke="#757575" points="1247.02,-161.385 1236.9,-164.526 1246.77,-168.381 1247.02,-161.385"/>
</g>
<!-- models/systemDefaults&#45;&gt;config/db -->
<g id="edge48" class="edge"><title>models/systemDefaults&#45;&gt;config/db</title>
<path fill="none" stroke="#757575" d="M2405.98,-224.245C2373.73,-221.335 2337.14,-218.263 2303.74,-216 1899.99,-188.642 1413.11,-170.675 1246.76,-164.962"/>
<polygon fill="#757575" stroke="#757575" points="1246.85,-161.463 1236.74,-164.62 1246.61,-168.459 1246.85,-161.463"/>
</g>
<!-- models/systemMessage&#45;&gt;config/db -->
<g id="edge49" class="edge"><title>models/systemMessage&#45;&gt;config/db</title>
<path fill="none" stroke="#757575" d="M2104.42,-221.075C2090.24,-219.179 2075.57,-217.388 2061.74,-216 1755.92,-185.293 1387.98,-170.03 1246.82,-164.97"/>
<polygon fill="#757575" stroke="#757575" points="1246.77,-161.467 1236.65,-164.61 1246.52,-168.462 1246.77,-161.467"/>
</g>
<!-- models/transaction&#45;&gt;config/db -->
<g id="edge50" class="edge"><title>models/transaction&#45;&gt;config/db</title>
<path fill="none" stroke="#757575" d="M959.449,-219.669C1010.88,-206.903 1087.85,-187.795 1137.94,-175.363"/>
<polygon fill="#757575" stroke="#757575" points="1139.03,-178.699 1147.89,-172.892 1137.34,-171.905 1139.03,-178.699"/>
</g>
<!-- models/userMessage&#45;&gt;config/db -->
<g id="edge53" class="edge"><title>models/userMessage&#45;&gt;config/db</title>
<path fill="none" stroke="#757575" d="M1187.74,-215.697C1187.74,-207.983 1187.74,-198.712 1187.74,-190.112"/>
<polygon fill="#757575" stroke="#757575" points="1191.24,-190.104 1187.74,-180.104 1184.24,-190.104 1191.24,-190.104"/>
</g>
<!-- models/userRating&#45;&gt;config/db -->
<g id="edge54" class="edge"><title>models/userRating&#45;&gt;config/db</title>
<path fill="none" stroke="#757575" d="M1350.31,-218.24C1315.56,-206.434 1267.04,-189.947 1232.07,-178.062"/>
<polygon fill="#757575" stroke="#757575" points="1233.18,-174.743 1222.59,-174.84 1230.93,-181.371 1233.18,-174.743"/>
</g>
<!-- models/userRole&#45;&gt;config/db -->
<g id="edge55" class="edge"><title>models/userRole&#45;&gt;config/db</title>
<path fill="none" stroke="#757575" d="M1522.04,-221.745C1511.61,-219.808 1500.87,-217.831 1490.74,-216 1403.56,-200.232 1302.12,-182.643 1241.52,-172.214"/>
<polygon fill="#757575" stroke="#757575" points="1241.87,-168.724 1231.43,-170.478 1240.69,-175.622 1241.87,-168.724"/>
</g>
<!-- services/dbHelper&#45;&gt;config -->
<g id="edge81" class="edge"><title>services/dbHelper&#45;&gt;config</title>
<path fill="none" stroke="#757575" d="M1005.24,-295.67C930.414,-285.05 821.226,-267.204 808.743,-252 798.591,-239.634 800.654,-229.805 808.743,-216 889.564,-78.073 1096.7,-35.8498 1189.08,-23.6489"/>
<polygon fill="#757575" stroke="#757575" points="1189.76,-27.0919 1199.24,-22.3683 1188.88,-20.1469 1189.76,-27.0919"/>
</g>
<!-- services/dbHelper&#45;&gt;config/db -->
<g id="edge82" class="edge"><title>services/dbHelper&#45;&gt;config/db</title>
<path fill="none" stroke="#757575" d="M1071.41,-287.715C1067.65,-268.556 1064.77,-237.524 1078.74,-216 1091.81,-195.876 1114.87,-183.164 1136.42,-175.253"/>
<polygon fill="#757575" stroke="#757575" points="1137.82,-178.472 1146.17,-171.947 1135.58,-171.843 1137.82,-178.472"/>
</g>
<!-- services/dbHelper&#45;&gt;logger/logger -->
<g id="edge83" class="edge"><title>services/dbHelper&#45;&gt;logger/logger</title>
<path fill="none" stroke="#757575" d="M1069.73,-287.972C1064.23,-269.836 1057.9,-240.437 1064.74,-216 1075.47,-177.716 1101.5,-139.512 1120.1,-115.606"/>
<polygon fill="#757575" stroke="#757575" points="1122.85,-117.774 1126.33,-107.769 1117.37,-113.416 1122.85,-117.774"/>
</g>
<!-- services/dbHelper&#45;&gt;models/user -->
<g id="edge89" class="edge"><title>services/dbHelper&#45;&gt;models/user</title>
<path fill="none" stroke="#757575" d="M1000.71,-297.208C868.418,-283.468 595.71,-255.145 469.085,-241.994"/>
<polygon fill="#757575" stroke="#757575" points="469.432,-238.511 459.124,-240.959 468.709,-245.474 469.432,-238.511"/>
</g>
<!-- services/dbHelper&#45;&gt;models/book -->
<g id="edge84" class="edge"><title>services/dbHelper&#45;&gt;models/book</title>
<path fill="none" stroke="#757575" d="M1010.65,-294.267C949.786,-284.05 856.433,-267.914 775.743,-252 769.497,-250.768 762.981,-249.431 756.493,-248.066"/>
<polygon fill="#757575" stroke="#757575" points="756.873,-244.568 746.363,-245.909 755.415,-251.415 756.873,-244.568"/>
</g>
<!-- services/dbHelper&#45;&gt;models/interest -->
<g id="edge85" class="edge"><title>services/dbHelper&#45;&gt;models/interest</title>
<path fill="none" stroke="#757575" d="M1160.82,-303.35C1310.18,-299.596 1629.04,-287.759 1895.74,-252 1902.4,-251.107 1909.33,-249.991 1916.22,-248.761"/>
<polygon fill="#757575" stroke="#757575" points="1917.05,-252.165 1926.24,-246.888 1915.77,-245.284 1917.05,-252.165"/>
</g>
<!-- services/dbHelper&#45;&gt;models/systemDefaults -->
<g id="edge86" class="edge"><title>services/dbHelper&#45;&gt;models/systemDefaults</title>
<path fill="none" stroke="#757575" d="M1159.35,-301.609C1417.36,-291.114 2190.49,-259.428 2303.74,-252 2333.62,-250.041 2366.05,-247.389 2395.65,-244.763"/>
<polygon fill="#757575" stroke="#757575" points="2396.34,-248.215 2405.99,-243.836 2395.72,-241.242 2396.34,-248.215"/>
</g>
<!-- services/dbHelper&#45;&gt;models/systemMessage -->
<g id="edge87" class="edge"><title>services/dbHelper&#45;&gt;models/systemMessage</title>
<path fill="none" stroke="#757575" d="M1158.97,-301.449C1363.64,-292.568 1887.49,-268.893 2061.74,-252 2072.41,-250.966 2083.58,-249.677 2094.64,-248.276"/>
<polygon fill="#757575" stroke="#757575" points="2095.29,-251.721 2104.75,-246.96 2094.38,-244.78 2095.29,-251.721"/>
</g>
<!-- services/dbHelper&#45;&gt;models/transaction -->
<g id="edge88" class="edge"><title>services/dbHelper&#45;&gt;models/transaction</title>
<path fill="none" stroke="#757575" d="M1038.44,-289.638C1013.17,-279.234 979.588,-265.407 952.531,-254.265"/>
<polygon fill="#757575" stroke="#757575" points="953.836,-251.018 943.257,-250.447 951.171,-257.491 953.836,-251.018"/>
</g>
<!-- services/dbHelper&#45;&gt;models/userMessage -->
<g id="edge90" class="edge"><title>services/dbHelper&#45;&gt;models/userMessage</title>
<path fill="none" stroke="#757575" d="M1101.72,-288.765C1116.88,-279.291 1136.2,-267.214 1152.69,-256.906"/>
<polygon fill="#757575" stroke="#757575" points="1154.89,-259.658 1161.52,-251.39 1151.18,-253.722 1154.89,-259.658"/>
</g>
<!-- services/dbHelper&#45;&gt;models/userRating -->
<g id="edge91" class="edge"><title>services/dbHelper&#45;&gt;models/userRating</title>
<path fill="none" stroke="#757575" d="M1132.6,-292.485C1186.78,-280.558 1268.4,-262.59 1325.95,-249.923"/>
<polygon fill="#757575" stroke="#757575" points="1327.03,-253.27 1336.04,-247.702 1325.52,-246.433 1327.03,-253.27"/>
</g>
<!-- services/dbHelper&#45;&gt;models/userRole -->
<g id="edge92" class="edge"><title>services/dbHelper&#45;&gt;models/userRole</title>
<path fill="none" stroke="#757575" d="M1149.77,-296.851C1232.92,-287.394 1371.81,-270.687 1490.74,-252 1498.03,-250.855 1505.63,-249.574 1513.19,-248.243"/>
<polygon fill="#757575" stroke="#757575" points="1513.86,-251.679 1523.09,-246.472 1512.63,-244.789 1513.86,-251.679"/>
</g>
<!-- db/seedDb&#45;&gt;config -->
<g id="edge32" class="edge"><title>db/seedDb&#45;&gt;config</title>
<path fill="none" stroke="#757575" d="M1637.19,-301.282C1808.78,-289.746 2319.82,-255.142 2322.74,-252 2333.65,-240.29 2331.89,-229.128 2322.74,-216 2201.05,-41.3376 1473.55,-21.4522 1281.31,-19.2565"/>
<polygon fill="#757575" stroke="#757575" points="1281.28,-15.7562 1271.25,-19.1524 1281.21,-22.7558 1281.28,-15.7562"/>
</g>
<!-- db/seedDb&#45;&gt;logger/logger -->
<g id="edge33" class="edge"><title>db/seedDb&#45;&gt;logger/logger</title>
<path fill="none" stroke="#757575" d="M1636.95,-301.194C1805.3,-289.557 2300.9,-255.057 2303.74,-252 2314.64,-240.279 2314.44,-227.903 2303.74,-216 2230.87,-134.878 1461.58,-101.888 1215.79,-93.3683"/>
<polygon fill="#757575" stroke="#757575" points="1215.64,-89.8612 1205.52,-93.0162 1215.4,-96.8571 1215.64,-89.8612"/>
</g>
<!-- db/seedDb&#45;&gt;models/user -->
<g id="edge40" class="edge"><title>db/seedDb&#45;&gt;models/user</title>
<path fill="none" stroke="#757575" d="M1525.63,-302.3C1378.03,-295.11 966.789,-274.507 624.743,-252 572.984,-248.594 514.517,-244.113 470.438,-240.607"/>
<polygon fill="#757575" stroke="#757575" points="470.657,-237.114 460.41,-239.807 470.099,-244.091 470.657,-237.114"/>
</g>
<!-- db/seedDb&#45;&gt;models/book -->
<g id="edge34" class="edge"><title>db/seedDb&#45;&gt;models/book</title>
<path fill="none" stroke="#757575" d="M1525.35,-302.749C1397.53,-297.295 1076.14,-281.591 808.743,-252 793.325,-250.294 776.767,-248.006 761.269,-245.663"/>
<polygon fill="#757575" stroke="#757575" points="761.676,-242.184 751.259,-244.12 760.61,-249.102 761.676,-242.184"/>
</g>
<!-- db/seedDb&#45;&gt;models/interest -->
<g id="edge35" class="edge"><title>db/seedDb&#45;&gt;models/interest</title>
<path fill="none" stroke="#757575" d="M1631.6,-297.134C1693.61,-287.224 1802.68,-269.38 1895.74,-252 1901.91,-250.848 1908.33,-249.608 1914.74,-248.342"/>
<polygon fill="#757575" stroke="#757575" points="1915.65,-251.728 1924.77,-246.338 1914.28,-244.864 1915.65,-251.728"/>
</g>
<!-- db/seedDb&#45;&gt;models/systemDefaults -->
<g id="edge37" class="edge"><title>db/seedDb&#45;&gt;models/systemDefaults</title>
<path fill="none" stroke="#757575" d="M1638.11,-302.624C1768.16,-296.837 2099.2,-280.368 2374.74,-252 2385.93,-250.848 2397.67,-249.452 2409.27,-247.961"/>
<polygon fill="#757575" stroke="#757575" points="2409.94,-251.402 2419.4,-246.629 2409.03,-244.462 2409.94,-251.402"/>
</g>
<!-- db/seedDb&#45;&gt;models/systemMessage -->
<g id="edge38" class="edge"><title>db/seedDb&#45;&gt;models/systemMessage</title>
<path fill="none" stroke="#757575" d="M1635.43,-299.596C1724.23,-290.54 1907.22,-271.381 2061.74,-252 2071.79,-250.74 2082.3,-249.358 2092.75,-247.944"/>
<polygon fill="#757575" stroke="#757575" points="2093.3,-251.402 2102.73,-246.582 2092.35,-244.467 2093.3,-251.402"/>
</g>
<!-- db/seedDb&#45;&gt;models/transaction -->
<g id="edge39" class="edge"><title>db/seedDb&#45;&gt;models/transaction</title>
<path fill="none" stroke="#757575" d="M1528.42,-299.478C1412.04,-287.427 1134.37,-258.674 992.46,-243.98"/>
<polygon fill="#757575" stroke="#757575" points="992.788,-240.495 982.481,-242.946 992.067,-247.458 992.788,-240.495"/>
</g>
<!-- db/seedDb&#45;&gt;models/userMessage -->
<g id="edge41" class="edge"><title>db/seedDb&#45;&gt;models/userMessage</title>
<path fill="none" stroke="#757575" d="M1533.04,-296.346C1466.3,-284.49 1345.67,-263.059 1266.14,-248.928"/>
<polygon fill="#757575" stroke="#757575" points="1266.62,-245.459 1256.16,-247.156 1265.4,-252.351 1266.62,-245.459"/>
</g>
<!-- db/seedDb&#45;&gt;models/userRating -->
<g id="edge42" class="edge"><title>db/seedDb&#45;&gt;models/userRating</title>
<path fill="none" stroke="#757575" d="M1546.38,-291.834C1517.46,-281.066 1476.22,-265.709 1443.89,-253.672"/>
<polygon fill="#757575" stroke="#757575" points="1444.76,-250.261 1434.17,-250.052 1442.32,-256.821 1444.76,-250.261"/>
</g>
<!-- db/seedDb&#45;&gt;models/userRole -->
<g id="edge43" class="edge"><title>db/seedDb&#45;&gt;models/userRole</title>
<path fill="none" stroke="#757575" d="M1581.74,-287.697C1581.74,-279.983 1581.74,-270.712 1581.74,-262.112"/>
<polygon fill="#757575" stroke="#757575" points="1585.24,-262.104 1581.74,-252.104 1578.24,-262.104 1585.24,-262.104"/>
</g>
<!-- models/schoolDomain -->
<g id="node28" class="node"><title>models/schoolDomain</title>
<ellipse fill="none" stroke="#c6c5fe" cx="1783.74" cy="-234" rx="102.882" ry="18"/>
<text text-anchor="middle" x="1783.74" y="-230.3" font-family="Arial" font-size="14.00" fill="#c6c5fe">models/schoolDomain</text>
</g>
<!-- db/seedDb&#45;&gt;models/schoolDomain -->
<g id="edge36" class="edge"><title>db/seedDb&#45;&gt;models/schoolDomain</title>
<path fill="none" stroke="#757575" d="M1618.79,-292.161C1649.92,-281.374 1694.82,-265.815 1729.92,-253.653"/>
<polygon fill="#757575" stroke="#757575" points="1731.23,-256.901 1739.53,-250.32 1728.94,-250.287 1731.23,-256.901"/>
</g>
<!-- models/schoolDomain&#45;&gt;config/db -->
<g id="edge47" class="edge"><title>models/schoolDomain&#45;&gt;config/db</title>
<path fill="none" stroke="#757575" d="M1710.31,-221.407C1697.46,-219.507 1684.22,-217.63 1671.74,-216 1517.79,-195.896 1335.61,-177.358 1244.95,-168.487"/>
<polygon fill="#757575" stroke="#757575" points="1245.18,-164.993 1234.88,-167.505 1244.5,-171.96 1245.18,-164.993"/>
</g>
</g>
</svg>
